<svg width="70" height="55" viewBox="0 0 70 55" fill="none" xmlns="http://www.w3.org/2000/svg">
<path d="M9.99989 11.6333C10.223 11.6326 10.4462 11.6317 10.6693 11.6305C11.2812 11.6281 11.8931 11.6289 12.5051 11.6303C13.1655 11.6312 13.8259 11.6291 14.4863 11.6274C15.7797 11.6245 17.0731 11.6245 18.3664 11.6256C19.4177 11.6264 20.469 11.6263 21.5203 11.6254C21.67 11.6253 21.8196 11.6252 21.9738 11.6251C22.2777 11.6248 22.5817 11.6246 22.8857 11.6243C25.7363 11.6222 28.5869 11.6233 31.4376 11.6255C34.0452 11.6275 36.6528 11.6255 39.2604 11.6217C41.9382 11.6178 44.616 11.6164 47.2938 11.6177C47.5968 11.6178 47.8997 11.6179 48.2027 11.618C48.4262 11.6181 48.4262 11.6181 48.6543 11.6182C49.7041 11.6185 50.7538 11.6172 51.8036 11.6153C53.0833 11.613 54.363 11.613 55.6427 11.616C56.2955 11.6175 56.9483 11.6179 57.6011 11.6154C58.1991 11.6132 58.797 11.6141 59.3949 11.6173C59.6109 11.618 59.8268 11.6175 60.0428 11.6158C61.2207 11.6072 62.2658 11.6295 63.2536 12.3628C64.1663 13.2916 64.4871 14.3778 64.4954 15.662C64.4942 15.7918 64.4931 15.9217 64.4919 16.0554C64.4922 16.1964 64.4926 16.3373 64.4929 16.4825C64.4936 16.9523 64.4914 17.422 64.4892 17.8918C64.4891 18.2295 64.4892 18.5672 64.4894 18.905C64.4895 19.6308 64.4884 20.3566 64.4861 21.0825C64.4829 22.1319 64.4819 23.1813 64.4814 24.2307C64.4805 25.9336 64.4779 27.6364 64.4741 29.3393C64.4705 30.9929 64.4677 32.6465 64.466 34.3001C64.4659 34.4021 64.4658 34.5042 64.4657 34.6093C64.4651 35.1211 64.4646 35.633 64.4641 36.1448C64.46 40.3874 64.4529 44.63 64.4442 48.8726C66.2776 48.8726 68.111 48.8726 70 48.8726C70 52.1391 70 52.1391 68.8188 53.4022C67.9228 54.1629 66.9327 54.4484 65.7823 54.4462C65.6743 54.4465 65.5664 54.4468 65.4552 54.4471C65.0904 54.448 64.7256 54.4479 64.3608 54.4479C64.0979 54.4483 63.8349 54.4488 63.572 54.4494C62.847 54.4507 62.122 54.4512 61.3969 54.4515C60.6159 54.452 59.8349 54.4533 59.0539 54.4545C57.2558 54.457 55.4576 54.4583 53.6594 54.4594C52.7709 54.46 51.8823 54.4607 50.9938 54.4614C47.9524 54.4637 44.9111 54.4657 41.8697 54.4667C41.6787 54.4668 41.4878 54.4668 41.2968 54.4669C41.1547 54.4669 41.1547 54.4669 41.0098 54.467C40.53 54.4671 40.0501 54.4673 39.5703 54.4675C39.4751 54.4675 39.3799 54.4675 39.2818 54.4676C36.1948 54.4686 33.1078 54.4717 30.0208 54.476C26.7574 54.4805 23.494 54.4831 20.2305 54.4836C19.8722 54.4836 19.5139 54.4837 19.1556 54.4838C19.0233 54.4838 19.0233 54.4838 18.8883 54.4838C17.5567 54.4841 16.225 54.4859 14.8934 54.4884C13.3784 54.4913 11.8634 54.4923 10.3484 54.4911C9.57531 54.4905 8.80225 54.4907 8.02917 54.4933C7.32128 54.4956 6.61345 54.4955 5.90556 54.4934C5.64962 54.4931 5.39368 54.4937 5.13775 54.4952C2.33512 54.5113 2.33512 54.5113 1.23828 53.5851C1.14279 53.4705 1.0473 53.3559 0.948916 53.2379C0.77294 53.0455 0.77294 53.0455 0.593409 52.8493C-0.036941 52.0145 -0.0111348 51.2156 0.00640862 50.2119C0.0118652 49.7699 0.0173219 49.328 0.0229438 48.8726C1.81272 48.8726 3.60249 48.8726 5.4465 48.8726C5.44561 48.4424 5.44473 48.0122 5.44383 47.569C5.43593 43.6232 5.43 39.6774 5.42623 35.7316C5.42574 35.2143 5.42522 34.6971 5.4247 34.1798C5.42459 34.0768 5.42449 33.9739 5.42438 33.8678C5.42266 32.2009 5.41953 30.534 5.41588 28.8671C5.41217 27.1564 5.40996 25.4458 5.40916 23.7351C5.40861 22.6797 5.40689 21.6244 5.40367 20.569C5.40132 19.7594 5.40108 18.9499 5.40161 18.1403C5.4015 17.8084 5.40071 17.4765 5.39919 17.1446C5.39722 16.6914 5.39769 16.2382 5.39877 15.785C5.39762 15.6538 5.39646 15.5225 5.39527 15.3873C5.40179 14.3769 5.57308 13.5089 6.26499 12.7266C6.33507 12.6441 6.40516 12.5615 6.47736 12.4765C7.55601 11.5678 8.65997 11.626 9.99989 11.6333Z" fill="#C591EF"/>
<path d="M10 11.6333C10.2231 11.6326 10.4463 11.6317 10.6694 11.6305C11.2813 11.6281 11.8932 11.6289 12.5052 11.6303C13.1656 11.6312 13.826 11.6291 14.4865 11.6274C15.7798 11.6245 17.0732 11.6245 18.3666 11.6256C19.4179 11.6264 20.4691 11.6263 21.5204 11.6254C21.6701 11.6253 21.8197 11.6252 21.9739 11.6251C22.2778 11.6248 22.5818 11.6246 22.8858 11.6243C25.7364 11.6222 28.5871 11.6233 31.4377 11.6255C34.0453 11.6275 36.6529 11.6255 39.2605 11.6217C41.9383 11.6178 44.6161 11.6164 47.2939 11.6177C47.5969 11.6178 47.8998 11.6179 48.2028 11.618C48.4263 11.6181 48.4263 11.6181 48.6544 11.6182C49.7042 11.6185 50.7539 11.6172 51.8037 11.6153C53.0834 11.613 54.3631 11.613 55.6428 11.616C56.2957 11.6175 56.9484 11.6179 57.6012 11.6154C58.1992 11.6132 58.7971 11.6141 59.395 11.6173C59.611 11.618 59.8269 11.6175 60.0429 11.6158C61.2172 11.6072 62.2726 11.6244 63.2537 12.3628C64.1697 13.3364 64.3514 14.1767 64.3438 15.4828C64.3442 15.6962 64.3442 15.6962 64.3445 15.914C64.3449 16.393 64.3435 16.8721 64.342 17.3512C64.3419 17.6996 64.342 18.048 64.3421 18.3964C64.3423 19.2359 64.341 20.0753 64.3393 20.9148C64.3374 21.8858 64.3372 22.8568 64.337 23.8278C64.3356 26.3915 64.3319 28.9552 64.3285 31.5189C64.3231 37.2456 64.3176 42.9723 64.312 48.8726C44.9301 48.8726 25.5481 48.8726 5.57889 48.8726C5.57889 47.9995 5.57889 47.1265 5.57889 46.2269C7.62801 46.2116 9.67711 46.1998 11.7263 46.1927C12.6778 46.1893 13.6293 46.1846 14.5809 46.177C15.4106 46.1704 16.2403 46.1662 17.0701 46.1647C17.5091 46.1639 17.9481 46.1615 18.3871 46.157C18.8782 46.1522 19.3692 46.1516 19.8604 46.1519C20.0045 46.1495 20.1487 46.1471 20.2972 46.1447C21.1313 46.1503 21.686 46.2719 22.3897 46.7292C22.7802 46.9743 23.165 47.069 23.6106 47.186C23.7656 47.2276 23.9206 47.2692 24.0803 47.3121C24.2172 47.3469 24.3541 47.3816 24.4952 47.4175C24.5765 47.4408 24.6579 47.4641 24.7417 47.4882C25.0749 47.5608 25.3871 47.5736 25.7281 47.5823C25.87 47.5865 26.0119 47.5907 26.158 47.595C26.3908 47.6013 26.3908 47.6013 26.6282 47.6076C27.6537 47.6382 28.6758 47.6738 29.6991 47.7492C32.1933 47.9313 34.6769 47.9722 37.1777 47.9714C37.3409 47.9715 37.5041 47.9716 37.6723 47.9717C39.4764 47.9716 41.2786 47.9481 43.0818 47.8872C43.238 47.8821 43.3943 47.877 43.5553 47.8718C43.7003 47.8663 43.8454 47.8609 43.9949 47.8553C44.1221 47.8506 44.2493 47.8459 44.3803 47.8411C44.7282 47.8148 45.0556 47.7581 45.3957 47.682C45.0018 46.8049 44.5397 46.4551 43.6574 46.0962C43.3132 45.9744 42.9679 45.8675 42.6178 45.764C42.238 45.6412 42.1141 45.5954 41.8489 45.2844C41.7971 45.1589 41.7452 45.0334 41.6918 44.9041C41.6458 44.8057 41.5997 44.7073 41.5523 44.606C41.1627 43.769 41.1627 43.769 41.1627 43.449C39.8322 43.6309 38.591 44.0315 37.3725 44.5946C37.2155 44.6667 37.0584 44.7389 36.8966 44.8132C36.7568 44.8809 36.6169 44.9486 36.4729 45.0183C35.1945 45.428 34.1402 45.0439 32.9281 44.5734C32.6906 44.483 32.6906 44.483 32.4483 44.3908C31.1321 43.8783 29.972 43.2637 28.7964 42.4807C27.358 41.5263 25.9122 40.9533 24.2306 40.5388C24.2306 40.4515 24.2306 40.3642 24.2306 40.2743C25.8615 39.9646 28.3912 39.9073 29.9187 40.6711C30.1724 39.9676 30.3854 39.3044 30.4479 38.5546C30.4595 38.4325 30.4711 38.3104 30.483 38.1846C30.5423 37.0788 30.288 36.2881 29.8407 35.3018C29.1999 33.752 29.412 31.7793 29.9187 30.2209C29.9663 30.0723 30.0139 29.9238 30.0629 29.7708C30.1877 29.3903 30.3158 29.0115 30.4479 28.6335C29.3743 28.7006 28.6707 29.1917 27.9345 29.9563C27.8472 29.9563 27.7599 29.9563 27.6699 29.9563C27.3388 29.4596 27.3455 29.2225 27.4054 28.6335C27.6375 28.2233 27.8668 27.9075 28.1991 27.5752C28.1712 27.1154 27.995 26.7649 27.794 26.3599C27.4947 25.6919 27.396 25.1239 27.5377 24.4005C27.8815 23.5195 28.3697 22.8619 29.0543 22.2209C29.5553 21.7237 29.6814 21.1305 29.8361 20.4651C30.2212 18.8671 31.0168 17.5612 32.4321 16.6785C32.6509 16.5597 32.8713 16.4436 33.0935 16.3313C33.1728 16.2862 33.2521 16.2412 33.3338 16.1949C34.4974 15.6326 36.1414 15.7868 37.3265 16.199C38.7464 16.8346 39.5985 17.8367 40.2367 19.2415C40.3969 19.692 40.5309 20.1497 40.6639 20.6089C40.964 21.6274 41.4449 22.3335 42.1641 23.0993C42.8647 23.9991 42.8497 24.8917 42.7501 25.9878C42.6493 26.3273 42.5154 26.5963 42.3532 26.9138C42.265 27.2502 42.265 27.2502 42.3532 27.5752C42.5197 27.7673 42.6865 27.9592 42.8575 28.1472C43.1484 28.5577 43.1389 28.9302 43.1469 29.4272C43.0151 29.7238 43.0151 29.7238 42.8823 29.9563C42.8198 29.9051 42.7572 29.854 42.6927 29.8013C41.9016 29.1782 41.0918 28.7258 40.1044 28.5012C40.1571 28.6195 40.2098 28.7379 40.2641 28.8598C40.3349 29.0213 40.4057 29.1829 40.4765 29.3445C40.5455 29.501 40.6146 29.6576 40.6857 29.8188C41.1256 30.8895 41.3751 31.8874 41.3776 33.0484C41.3785 33.236 41.3785 33.236 41.3795 33.4273C41.3549 34.4817 41.0839 35.3501 40.7014 36.3243C40.1671 37.6978 40.2861 38.7698 40.7658 40.142C40.811 40.3181 40.8552 40.4944 40.8981 40.6711C41.1311 40.6304 41.1311 40.6304 41.3689 40.589C41.584 40.5529 41.7991 40.5169 42.0143 40.481C42.1153 40.4631 42.2163 40.4453 42.3204 40.427C44.1202 40.1306 45.8718 40.0953 47.6788 40.3145C47.9698 40.349 48.261 40.378 48.5526 40.4068C49.8462 40.549 50.8778 40.8468 51.8114 41.8038C52.1 42.2728 52.2744 42.6296 52.2744 43.1845C55.0245 43.1845 57.7746 43.1845 60.6081 43.1845C60.6081 33.6245 60.6081 24.0645 60.6081 14.2148C43.6708 14.2148 26.7334 14.2148 9.28278 14.2148C9.28278 23.7748 9.28278 33.3348 9.28278 43.1845C12.6004 43.1845 15.918 43.1845 19.3362 43.1845C19.4672 43.621 19.5981 44.0575 19.733 44.5073C19.9104 44.8432 19.9104 44.8432 20.1216 45.086C20.1856 45.1662 20.2495 45.2463 20.3154 45.3289C20.5519 45.5937 20.8048 45.8436 21.0559 46.0947C15.9048 46.0947 10.7538 46.0947 5.44661 46.0947C5.43062 38.1758 5.43062 38.1758 5.42723 34.861C5.42646 34.1036 5.42566 33.3462 5.42481 32.5887C5.42471 32.4938 5.4246 32.3989 5.42449 32.3011C5.42277 30.7692 5.41964 29.2373 5.41599 27.7054C5.41228 26.1328 5.41008 24.5603 5.40927 22.9878C5.40878 22.1047 5.40754 21.2216 5.40465 20.3385C5.40196 19.5072 5.40113 18.676 5.40172 17.8447C5.40162 17.5397 5.40083 17.2347 5.39931 16.9297C5.39733 16.5129 5.39781 16.0963 5.39889 15.6796C5.39773 15.5591 5.39658 15.4387 5.39539 15.3146C5.40225 14.3353 5.59681 13.4822 6.2651 12.7266C6.37023 12.6028 6.37023 12.6028 6.47748 12.4765C7.55613 11.5678 8.66008 11.626 10 11.6333Z" fill="#6C31B9"/>
<path d="M5.57878 14.4793C5.62243 14.4793 5.66608 14.4793 5.71106 14.4793C5.71106 24.9124 5.71106 35.3454 5.71106 46.0947C13.2412 46.0292 13.2412 46.0292 20.9235 45.9624C20.6179 45.7005 20.3123 45.4385 19.9975 45.1687C19.5148 44.5014 19.2174 43.772 19.273 42.9411C19.4712 42.0428 20.0605 41.4871 20.7829 40.9656C21.9339 40.2811 23.5401 40.2401 24.8304 40.5135C26.3125 40.8961 27.7401 41.5458 28.9761 42.4486C30.2826 43.3957 31.7737 44.0066 33.2753 44.5734C33.3947 44.6198 33.5141 44.6662 33.6371 44.7139C34.7492 45.1186 35.7242 45.2231 36.8255 44.7406C36.9144 44.6991 37.0033 44.6575 37.0949 44.6147C37.2896 44.5297 37.4844 44.445 37.6793 44.3605C37.7752 44.3183 37.8711 44.2761 37.9699 44.2326C38.3934 44.0494 38.8205 43.8834 39.2528 43.7218C39.3921 43.6688 39.5314 43.6158 39.6749 43.5611C40.1947 43.4254 40.6268 43.4298 41.1626 43.449C41.226 43.6501 41.226 43.6501 41.2907 43.8552C41.6916 44.9899 41.6916 44.9899 42.5934 45.7231C42.9558 45.8632 43.3224 45.9699 43.6971 46.0714C44.3493 46.249 44.8503 46.5483 45.2468 47.1033C45.3956 47.4175 45.3956 47.4175 45.3956 47.682C44.9134 47.9005 44.5228 47.9839 43.9948 48.0005C43.8497 48.0055 43.7046 48.0105 43.5551 48.0156C43.3989 48.0196 43.2427 48.0236 43.0817 48.0277C42.9178 48.0327 42.7539 48.0376 42.585 48.0427C40.7827 48.0929 38.9805 48.1049 37.1776 48.1037C36.9233 48.1038 36.9233 48.1038 36.6639 48.1038C34.1695 48.1029 31.6997 48.0285 29.2128 47.8448C28.2232 47.7826 27.2307 47.7636 26.2393 47.7505C25.2947 47.7278 24.4672 47.5772 23.5691 47.2852C23.4248 47.2388 23.2806 47.1924 23.1319 47.1446C23.0197 47.1037 22.9075 47.0628 22.7919 47.0206C22.6777 46.9797 22.5634 46.9388 22.4457 46.8966C22.114 46.7561 22.114 46.7561 21.8583 46.5524C21.228 46.2523 20.61 46.3011 19.9203 46.302C19.7654 46.3007 19.6105 46.2993 19.4509 46.2979C18.9391 46.2939 18.4274 46.2927 17.9156 46.2915C17.5607 46.2893 17.2057 46.2869 16.8508 46.2843C16.0122 46.2786 15.1736 46.2748 14.335 46.2717C13.3801 46.2681 12.4252 46.2623 11.4703 46.2563C9.50645 46.2441 7.54262 46.2347 5.57878 46.2269C5.57878 47.1 5.57878 47.9731 5.57878 48.8726C24.9607 48.8726 44.3426 48.8726 64.3119 48.8726C64.3119 37.5664 64.3119 26.2603 64.3119 14.6116C64.3555 14.6116 64.3992 14.6116 64.4442 14.6116C64.4442 25.9177 64.4442 37.2238 64.4442 48.8726C66.2776 48.8726 68.111 48.8726 70 48.8726C70 52.1391 70 52.1391 68.8188 53.4022C67.9228 54.1629 66.9327 54.4484 65.7823 54.4462C65.6743 54.4465 65.5664 54.4468 65.4552 54.4471C65.0904 54.448 64.7256 54.4479 64.3608 54.4479C64.0979 54.4483 63.8349 54.4488 63.572 54.4493C62.847 54.4507 62.122 54.4512 61.3969 54.4515C60.6159 54.452 59.8349 54.4533 59.0539 54.4544C57.2558 54.4569 55.4576 54.4583 53.6594 54.4594C52.7709 54.46 51.8823 54.4607 50.9938 54.4613C47.9524 54.4637 44.9111 54.4657 41.8697 54.4667C41.6787 54.4667 41.4878 54.4668 41.2968 54.4669C41.1547 54.4669 41.1547 54.4669 41.0098 54.467C40.53 54.4671 40.0501 54.4673 39.5703 54.4674C39.4751 54.4675 39.3799 54.4675 39.2818 54.4675C36.1948 54.4686 33.1078 54.4717 30.0208 54.476C26.7574 54.4805 23.494 54.4831 20.2305 54.4836C19.8722 54.4836 19.5139 54.4837 19.1556 54.4838C19.0233 54.4838 19.0233 54.4838 18.8883 54.4838C17.5567 54.4841 16.225 54.4859 14.8934 54.4884C13.3784 54.4913 11.8634 54.4923 10.3484 54.491C9.57531 54.4904 8.80225 54.4907 8.02917 54.4933C7.32128 54.4956 6.61345 54.4955 5.90556 54.4934C5.64962 54.4931 5.39368 54.4937 5.13775 54.4952C2.33512 54.5113 2.33512 54.5113 1.23828 53.5851C1.14279 53.4705 1.0473 53.3559 0.948916 53.2379C0.77294 53.0455 0.77294 53.0455 0.593409 52.8493C-0.036941 52.0145 -0.0111348 51.2156 0.00640862 50.2119C0.0118652 49.7699 0.0173219 49.3279 0.0229438 48.8726C1.81272 48.8726 3.60249 48.8726 5.4465 48.8726C5.49015 37.5228 5.5338 26.173 5.57878 14.4793Z" fill="#C28FEE"/>
<path d="M38.4581 16.8196C39.6844 17.8085 40.238 19.1387 40.6639 20.609C40.9639 21.6274 41.4448 22.3335 42.164 23.0993C42.8646 23.9991 42.8496 24.8918 42.75 25.9878C42.6492 26.3273 42.5153 26.5963 42.3531 26.9138C42.2649 27.2502 42.2649 27.2502 42.3531 27.5752C42.5196 27.7673 42.6864 27.9592 42.8575 28.1472C43.1483 28.5577 43.1388 28.9302 43.1468 29.4272C43.0151 29.7238 43.0151 29.7238 42.8823 29.9563C42.8197 29.9051 42.7571 29.854 42.6926 29.8013C41.9015 29.1783 41.0917 28.7258 40.1043 28.5012C40.157 28.6195 40.2097 28.7379 40.264 28.8598C40.3348 29.0213 40.4056 29.1829 40.4764 29.3445C40.5454 29.501 40.6145 29.6576 40.6857 29.8188C41.1255 30.8895 41.375 31.8874 41.3776 33.0484C41.3781 33.1734 41.3787 33.2985 41.3794 33.4273C41.3548 34.4817 41.0838 35.3501 40.7013 36.3243C40.1671 37.6978 40.286 38.7698 40.7657 40.142C40.7864 40.2388 40.807 40.3357 40.8283 40.4355C40.8513 40.5132 40.8743 40.591 40.898 40.6711C40.9853 40.7148 41.0726 40.7584 41.1626 40.8034C40.9096 40.9066 40.6559 41.0083 40.402 41.1093C40.2608 41.1661 40.1196 41.2229 39.9741 41.2814C38.6015 41.7759 37.3197 41.9307 35.8631 41.9195C35.7735 41.9192 35.6839 41.9189 35.5917 41.9186C33.5552 41.9074 31.6716 41.5998 29.7864 40.8034C29.823 40.7187 29.8597 40.6339 29.8975 40.5466C30.1775 39.8778 30.3983 39.2845 30.4478 38.5546C30.4592 38.4327 30.4706 38.3108 30.4824 38.1852C30.543 37.0792 30.2879 36.2882 29.8406 35.3018C29.1998 33.752 29.4119 31.7793 29.9186 30.2209C29.9662 30.0723 30.0138 29.9238 30.0628 29.7708C30.1876 29.3903 30.3157 29.0115 30.4478 28.6335C29.3742 28.7006 28.6707 29.1917 27.9344 29.9563C27.8471 29.9563 27.7598 29.9563 27.6699 29.9563C27.3387 29.4596 27.3454 29.2225 27.4053 28.6335C27.6374 28.2234 27.8667 27.9075 28.199 27.5752C28.1711 27.1154 27.995 26.7649 27.7939 26.3599C27.4946 25.6919 27.3959 25.1239 27.5376 24.4005C27.8814 23.5195 28.3696 22.8619 29.0542 22.2209C29.5552 21.7237 29.6813 21.1305 29.836 20.4651C30.2211 18.8671 31.0167 17.5612 32.432 16.6785C32.6508 16.5597 32.8712 16.4436 33.0934 16.3313C33.1727 16.2863 33.252 16.2412 33.3337 16.1949C34.9179 15.4293 37.0663 15.8982 38.4581 16.8196Z" fill="#602CA9"/>
<path d="M64.1796 14.7439C64.2232 14.7439 64.2669 14.7439 64.3118 14.7439C64.3118 26.0064 64.3118 37.2688 64.3118 48.8726C44.9299 48.8726 25.548 48.8726 5.57874 48.8726C5.57874 47.9995 5.57874 47.1265 5.57874 46.227C7.62785 46.2116 9.67696 46.1998 11.7261 46.1927C12.6777 46.1893 13.6292 46.1846 14.5807 46.1771C15.4105 46.1704 16.2402 46.1662 17.07 46.1647C17.509 46.1639 17.9479 46.1615 18.3869 46.157C18.8781 46.1522 19.3691 46.1516 19.8602 46.1519C20.0765 46.1483 20.0765 46.1483 20.297 46.1447C21.1311 46.1503 21.6858 46.2719 22.3895 46.7292C22.78 46.9743 23.1649 47.069 23.6104 47.186C23.7654 47.2276 23.9204 47.2692 24.0801 47.3121C24.217 47.3469 24.354 47.3817 24.495 47.4175C24.5764 47.4408 24.6577 47.4642 24.7415 47.4882C25.0747 47.5608 25.3869 47.5736 25.7279 47.5823C25.8698 47.5865 26.0117 47.5907 26.1579 47.595C26.3906 47.6013 26.3906 47.6013 26.6281 47.6076C27.6536 47.6382 28.6757 47.6738 29.699 47.7492C32.1931 47.9313 34.6767 47.9722 37.1775 47.9714C37.3408 47.9715 37.504 47.9716 37.6721 47.9717C39.4763 47.9716 41.2785 47.9481 43.0816 47.8872C43.316 47.8796 43.316 47.8796 43.5551 47.8718C43.7727 47.8636 43.7727 47.8636 43.9948 47.8553C44.122 47.8506 44.2491 47.8459 44.3802 47.8411C44.728 47.8148 45.0554 47.7581 45.3955 47.6821C45.0016 46.8049 44.5395 46.4551 43.6573 46.0962C43.313 45.9744 42.9677 45.8675 42.6176 45.764C42.2379 45.6412 42.114 45.5954 41.8487 45.2844C41.7969 45.1589 41.7451 45.0334 41.6917 44.9041C41.6456 44.8057 41.5996 44.7074 41.5521 44.606C41.1625 43.769 41.1625 43.769 41.1625 43.449C39.8321 43.631 38.5908 44.0315 37.3723 44.5946C37.2153 44.6668 37.0583 44.7389 36.8964 44.8132C36.7566 44.8809 36.6168 44.9486 36.4727 45.0183C35.1943 45.428 34.1401 45.0439 32.928 44.5734C32.6905 44.483 32.6905 44.483 32.4481 44.3908C31.1319 43.8783 29.9718 43.2638 28.7963 42.4807C27.3579 41.5263 25.9121 40.9533 24.2305 40.5388C24.2305 40.4515 24.2305 40.3642 24.2305 40.2743C26.1867 39.9028 28.6163 40.0325 30.4477 40.8613C33.239 42.1214 37.1129 42.2407 39.9763 41.1727C40.165 41.0968 40.3523 41.0172 40.5386 40.9356C41.3907 40.5695 42.1939 40.4022 43.1137 40.2991C43.2547 40.2828 43.3956 40.2665 43.5409 40.2497C44.4756 40.1501 45.3576 40.1145 46.2921 40.2396C46.6759 40.2849 47.0602 40.3142 47.4454 40.3451C47.7653 40.3736 48.0851 40.4024 48.405 40.4314C48.557 40.4431 48.7091 40.4548 48.8658 40.4668C50.0659 40.5868 50.9858 40.934 51.8195 41.8286C52.2772 42.545 52.2117 43.2785 52.1419 44.1104C51.9037 44.9068 51.2671 45.3821 50.6868 45.9624C55.1394 46.006 59.592 46.0497 64.1796 46.0947C64.1796 35.7489 64.1796 25.4032 64.1796 14.7439Z" fill="#351A5E"/>
<path d="M5.57869 14.4793C5.62235 14.4793 5.666 14.4793 5.71097 14.4793C5.71097 24.9124 5.71097 35.3454 5.71097 46.0947C13.2411 46.0292 13.2411 46.0292 20.9234 45.9624C20.6178 45.7005 20.3122 45.4385 19.9974 45.1687C19.5147 44.5014 19.2173 43.772 19.273 42.9411C19.4711 42.0428 20.0604 41.4871 20.7828 40.9656C21.9338 40.2811 23.54 40.2401 24.8303 40.5135C26.3124 40.8961 27.74 41.5458 28.976 42.4486C30.2825 43.3957 31.7736 44.0066 33.2752 44.5734C33.3946 44.6198 33.514 44.6662 33.637 44.7139C34.7491 45.1186 35.7241 45.2231 36.8254 44.7406C36.9143 44.6991 37.0032 44.6575 37.0948 44.6147C37.2895 44.5297 37.4843 44.445 37.6792 44.3605C37.7751 44.3183 37.871 44.2761 37.9698 44.2326C38.3933 44.0494 38.8204 43.8834 39.2527 43.7218C39.392 43.6688 39.5313 43.6158 39.6748 43.5611C40.1946 43.4254 40.6267 43.4298 41.1625 43.449C41.2259 43.6501 41.2259 43.6501 41.2906 43.8552C41.6915 44.9899 41.6915 44.9899 42.5933 45.7231C42.9557 45.8632 43.3223 45.9699 43.697 46.0714C44.3492 46.249 44.8502 46.5483 45.2467 47.1033C45.3955 47.4175 45.3955 47.4175 45.3955 47.682C44.9133 47.9005 44.5227 47.9839 43.9947 48.0005C43.8496 48.0055 43.7045 48.0105 43.5551 48.0156C43.3988 48.0196 43.2426 48.0236 43.0816 48.0277C42.9177 48.0327 42.7538 48.0376 42.5849 48.0427C40.7826 48.0929 38.9804 48.1049 37.1775 48.1037C36.9232 48.1038 36.9232 48.1038 36.6638 48.1038C34.1694 48.1029 31.6996 48.0285 29.2127 47.8448C28.2231 47.7826 27.2306 47.7636 26.2392 47.7505C25.2946 47.7278 24.4671 47.5772 23.569 47.2852C23.4248 47.2388 23.2805 47.1924 23.1319 47.1446C23.0197 47.1037 22.9075 47.0628 22.7919 47.0206C22.6776 46.9797 22.5634 46.9388 22.4457 46.8966C22.1139 46.7561 22.1139 46.7561 21.8582 46.5524C21.2279 46.2523 20.6099 46.3011 19.9203 46.302C19.7653 46.3007 19.6104 46.2993 19.4508 46.2979C18.939 46.2939 18.4273 46.2927 17.9155 46.2915C17.5606 46.2893 17.2056 46.2869 16.8507 46.2843C16.0121 46.2786 15.1735 46.2748 14.335 46.2717C13.38 46.2681 12.4251 46.2623 11.4702 46.2563C9.50637 46.2441 7.54254 46.2347 5.57869 46.2269C5.57869 47.1 5.57869 47.9731 5.57869 48.8726C24.9606 48.8726 44.3425 48.8726 64.3118 48.8726C64.3118 48.9162 64.3118 48.9599 64.3118 49.0048C57.1964 49.0048 50.0809 49.0048 42.7499 49.0048C42.7062 49.2231 42.6626 49.4414 42.6176 49.6663C42.212 50.3591 41.6327 50.6077 40.8979 50.8568C40.4934 50.9246 40.1005 50.9307 39.6909 50.9274C39.5767 50.9285 39.4625 50.9296 39.3449 50.9308C38.9712 50.9338 38.5976 50.9329 38.2239 50.9317C37.9618 50.9324 37.6998 50.9332 37.4377 50.9342C36.8899 50.9356 36.3421 50.935 35.7943 50.933C35.0949 50.9308 34.3957 50.9339 33.6963 50.9385C33.1556 50.9414 32.6148 50.9412 32.074 50.9401C31.8163 50.94 31.5586 50.9409 31.3009 50.9429C28.6298 50.9601 28.6298 50.9601 27.6697 50.1954C27.3165 49.8232 27.1406 49.5324 27.1406 49.0048C19.9815 49.0048 12.8224 49.0048 5.44641 49.0048C5.49006 37.6114 5.53372 26.218 5.57869 14.4793Z" fill="#632DAC"/>
<path d="M69.7355 51.1214C69.7791 51.1214 69.8228 51.1214 69.8678 51.1214C69.9163 51.9857 69.5359 52.5999 68.9733 53.2374C67.5799 54.5516 66.0525 54.5047 64.2495 54.4956C63.9858 54.4962 63.722 54.4971 63.4583 54.4981C62.7354 54.5003 62.0125 54.4993 61.2895 54.4976C60.5092 54.4964 59.7288 54.4983 58.9484 54.4997C57.4204 54.5021 55.8925 54.5016 54.3644 54.5C53.1226 54.4988 51.8807 54.4987 50.6389 54.4992C50.5506 54.4993 50.4623 54.4993 50.3713 54.4994C50.0129 54.4995 49.6544 54.4997 49.296 54.4999C45.9349 54.5015 42.5738 54.5 39.2127 54.4972C36.2278 54.4947 33.2429 54.4949 30.258 54.4974C26.903 54.5003 23.5479 54.5014 20.1929 54.4997C19.8352 54.4996 19.4774 54.4994 19.1196 54.4992C19.0315 54.4992 18.9434 54.4992 18.8527 54.4991C17.5235 54.4985 16.1943 54.4992 14.8652 54.5006C13.3536 54.502 11.842 54.5016 10.3304 54.4988C9.55915 54.4974 8.78797 54.4969 8.01675 54.4986C7.31062 54.5002 6.60453 54.4993 5.8984 54.4965C5.64311 54.4959 5.38782 54.4962 5.13254 54.4975C2.33417 54.5105 2.33417 54.5105 1.23833 53.5851C1.09509 53.4133 1.09509 53.4133 0.948964 53.2379C0.828918 53.1124 0.708873 52.9869 0.585189 52.8576C0.250856 52.3932 0.189156 52.0829 0.155273 51.5182C0.336127 51.6776 0.516981 51.8369 0.697835 51.9962C1.40112 52.5099 2.00739 52.6342 2.86374 52.6264C2.9753 52.627 3.08686 52.6276 3.2018 52.6282C3.57655 52.6296 3.95124 52.6283 4.32599 52.6269C4.59701 52.6273 4.86802 52.628 5.13904 52.6288C5.88454 52.6304 6.63002 52.6296 7.37552 52.6284C8.17924 52.6275 8.98295 52.6289 9.78667 52.63C11.2705 52.6316 12.7543 52.6315 14.2381 52.6304C15.6091 52.6294 16.9801 52.6291 18.3511 52.6296C18.442 52.6296 18.5329 52.6297 18.6266 52.6297C18.9956 52.6298 19.3647 52.6299 19.7337 52.6301C23.1967 52.6313 26.6597 52.6302 30.1227 52.6281C33.199 52.6262 36.2753 52.6263 39.3516 52.6282C42.8076 52.6304 46.2636 52.6312 49.7196 52.63C50.0882 52.6298 50.4567 52.6297 50.8252 52.6296C50.9159 52.6296 51.0067 52.6295 51.1001 52.6295C52.4699 52.6291 53.8397 52.6296 55.2095 52.6306C56.7675 52.6317 58.3254 52.6314 59.8834 52.6293C60.6784 52.6282 61.4734 52.6278 62.2685 52.6291C62.9962 52.6303 63.724 52.6297 64.4517 52.6276C64.7151 52.6271 64.9784 52.6273 65.2417 52.6283C65.5997 52.6295 65.9576 52.6283 66.3157 52.6264C66.4178 52.6274 66.5199 52.6283 66.6251 52.6293C67.7552 52.6176 68.6593 52.3101 69.4709 51.5182C69.5582 51.3873 69.6455 51.2563 69.7355 51.1214Z" fill="#692FB5"/>
<path d="M64.1797 14.7439C64.2233 14.7439 64.267 14.7439 64.312 14.7439C64.312 25.1333 64.312 35.5227 64.312 46.227C59.5538 46.2706 54.7956 46.3143 49.8933 46.3592C49.3694 46.6212 48.8456 46.8831 48.3059 47.1529C47.1768 47.6053 46.0782 47.7747 44.8665 47.8143C45.0412 47.7707 45.2158 47.727 45.3957 47.6821C45.0017 46.8049 44.5397 46.4551 43.6574 46.0962C43.3131 45.9744 42.9679 45.8675 42.6178 45.764C42.238 45.6412 42.1141 45.5954 41.8489 45.2844C41.797 45.1589 41.7452 45.0334 41.6918 44.9041C41.6457 44.8057 41.5997 44.7074 41.5523 44.606C41.1627 43.769 41.1627 43.769 41.1627 43.449C39.8322 43.631 38.591 44.0315 37.3725 44.5946C37.2154 44.6668 37.0584 44.7389 36.8966 44.8132C36.7567 44.8809 36.6169 44.9486 36.4729 45.0183C35.1945 45.428 34.1402 45.0439 32.9281 44.5734C32.7698 44.5132 32.6114 44.4529 32.4482 44.3908C31.132 43.8783 29.9719 43.2638 28.7964 42.4807C27.358 41.5263 25.9122 40.9533 24.2306 40.5388C24.2306 40.4515 24.2306 40.3642 24.2306 40.2743C26.1868 39.9028 28.6164 40.0325 30.4478 40.8613C33.2391 42.1214 37.1131 42.2407 39.9764 41.1727C40.1652 41.0968 40.3525 41.0172 40.5388 40.9356C41.3908 40.5695 42.1941 40.4022 43.1138 40.2991C43.3253 40.2746 43.3253 40.2746 43.541 40.2497C44.4757 40.1501 45.3577 40.1145 46.2923 40.2396C46.676 40.2849 47.0604 40.3142 47.4455 40.3451C47.7654 40.3736 48.0852 40.4024 48.4051 40.4314C48.5572 40.4431 48.7092 40.4548 48.8659 40.4668C50.066 40.5868 50.986 40.934 51.8196 41.8286C52.2773 42.545 52.2118 43.2785 52.142 44.1104C51.9039 44.9068 51.2672 45.3821 50.6869 45.9624C55.1395 46.006 59.5922 46.0497 64.1797 46.0947C64.1797 35.7489 64.1797 25.4032 64.1797 14.7439Z" fill="#602BA9"/>
<path d="M36.1358 18.1832C37.0058 18.8444 37.4951 19.5862 37.9852 20.5565C38.1111 20.8026 38.1111 20.8026 38.3846 21.0934C38.7504 21.1986 39.0576 21.2129 39.4429 21.2257C39.5774 22.2104 39.3778 22.812 38.8202 23.6249C38.5962 23.9046 38.3761 24.1564 38.1268 24.4113C38.0601 24.4799 37.9935 24.5485 37.9249 24.6191C37.7932 24.7517 37.6585 24.8814 37.5207 25.0076C37.2583 25.267 37.0714 25.4821 37.0382 25.8573C37.0867 26.3669 37.1894 26.7635 37.5413 27.137C37.6116 27.2131 37.6818 27.2892 37.7542 27.3675C37.9904 27.5776 38.2277 27.7227 38.5004 27.8811C38.8006 28.0842 38.8976 28.1751 38.9907 28.5296C39.0336 29.5613 38.6595 30.3416 38.0952 31.1799C37.3562 31.9025 36.481 32.353 35.4413 32.3704C34.7878 32.3627 34.3339 32.2635 33.7547 31.9405C33.6775 31.8986 33.6003 31.8566 33.5207 31.8134C32.7439 31.3362 32.2345 30.5545 31.9478 29.6943C31.8931 29.3698 31.8902 29.0617 31.8945 28.7327C31.8957 28.6147 31.8969 28.4967 31.8982 28.3751C31.9005 28.2411 31.9005 28.2411 31.9028 28.1044C31.9826 28.0628 32.0624 28.0211 32.1446 27.9783C33.1231 27.505 33.1231 27.505 33.715 26.6487C33.7857 26.3141 33.8074 26.0618 33.7547 25.7233C33.5632 25.4571 33.3488 25.269 33.1001 25.0557C32.3692 24.3597 31.6604 23.2684 31.6217 22.2426C31.6299 22.0666 31.6299 22.0666 31.6382 21.8871C31.7692 21.8486 31.9002 21.81 32.0351 21.7703C34.0335 21.1597 35.027 20.2532 36.019 18.4065C36.0576 18.3328 36.0961 18.2591 36.1358 18.1832Z" fill="#FBD6C7"/>
<path d="M40.1044 28.5012C41.2024 28.5713 42.0181 29.0403 42.7831 29.824C43.7262 30.9599 44.0049 32.4074 44.3431 33.809C44.7878 35.6895 44.7878 35.6895 46.0927 37.0236C47.3939 37.6849 48.8622 37.8257 50.2901 38.0255C50.2983 37.9082 50.3064 37.7909 50.3149 37.67C50.447 37.1315 50.6724 36.9303 51.0838 36.5704C51.1274 36.5268 51.1711 36.4831 51.216 36.4381C51.8125 36.3807 52.3615 36.3649 52.9192 36.5952C53.0119 36.6743 53.1047 36.7535 53.2003 36.835C53.3012 36.9195 53.4022 37.0041 53.5062 37.0913C53.8609 37.735 53.823 38.366 53.7294 39.0838C53.4095 39.8169 52.844 40.1947 52.142 40.5389C50.7494 41.0161 48.9312 40.6333 47.5121 40.4645C45.587 40.2397 43.8675 40.3067 41.9501 40.6179C41.5931 40.6666 41.2577 40.6811 40.8981 40.6711C40.8118 40.4869 40.7265 40.3022 40.6418 40.1172C40.5942 40.0144 40.5466 39.9116 40.4976 39.8056C39.9706 38.4743 40.1912 37.2773 40.6996 35.9917C41.5725 33.7053 41.3353 31.5105 40.3689 29.2949C40.2816 29.164 40.1943 29.033 40.1044 28.8981C40.1044 28.7671 40.1044 28.6361 40.1044 28.5012Z" fill="#FBD6C7"/>
<path d="M30.58 28.5012C30.5464 28.6069 30.5128 28.7126 30.4782 28.8216C30.3324 29.287 30.1913 29.7537 30.0509 30.2209C30.0101 30.3491 29.9694 30.4773 29.9274 30.6094C29.3924 32.4525 29.464 34.5069 30.3403 36.2314C30.8417 37.2901 30.6779 38.6559 30.3154 39.7451C30.1879 40.0561 30.0539 40.3634 29.9186 40.6711C29.5548 40.6302 29.191 40.5888 28.8273 40.5471C28.7245 40.5356 28.6216 40.5241 28.5157 40.5122C28.4159 40.5007 28.3162 40.4892 28.2134 40.4773C28.122 40.467 28.0305 40.4566 27.9363 40.4459C27.6698 40.4066 27.6698 40.4066 27.3962 40.3377C26.1329 40.0242 24.6535 40.3067 23.3872 40.4727C22.3866 40.6014 21.3956 40.7152 20.386 40.729C20.2482 40.7333 20.2482 40.7333 20.1076 40.7378C19.2196 40.7343 18.5558 40.3891 17.9058 39.8113C17.7625 39.6476 17.7625 39.6476 17.6164 39.4806C17.5373 39.4042 17.4582 39.3278 17.3766 39.2491C17.1189 38.7608 17.1236 38.299 17.2196 37.7609C17.4762 37.1837 17.7506 36.7896 18.2778 36.4381C18.8929 36.3356 19.4391 36.3768 19.9892 36.6779C20.3943 36.9672 20.3943 36.9672 20.6589 37.3641C20.6754 37.7196 20.6754 37.7196 20.6589 38.0255C22.1201 37.8401 24.3364 37.5389 25.421 36.4381C26.0864 35.5071 26.2691 34.382 26.5354 33.2881C27.087 31.0414 27.087 31.0414 27.6698 30.2209C27.8008 30.1772 27.9317 30.1335 28.0667 30.0886C28.0803 30.0122 28.0939 29.9358 28.108 29.8571C28.288 29.2679 28.8863 28.9623 29.3895 28.6583C29.8196 28.488 30.1225 28.4891 30.58 28.5012Z" fill="#FCD5C6"/>
<path d="M41.1626 43.4491C41.2049 43.5831 41.2472 43.7171 41.2908 43.8552C41.6916 44.9899 41.6916 44.9899 42.5934 45.7232C42.9558 45.8633 43.3225 45.9699 43.6972 46.0714C44.3494 46.2491 44.8504 46.5483 45.2468 47.1033C45.3957 47.4175 45.3957 47.4175 45.3957 47.6821C44.9134 47.9006 44.5229 47.9839 43.9949 48.0005C43.7772 48.008 43.7772 48.008 43.5552 48.0157C43.3208 48.0217 43.3208 48.0217 43.0818 48.0278C42.9178 48.0327 42.7539 48.0376 42.585 48.0427C40.7827 48.093 38.9805 48.1048 37.1776 48.1037C37.0094 48.1038 36.8411 48.1039 36.6677 48.104C34.0128 48.1039 31.374 48.0367 28.7281 47.8144C28.8014 46.9017 29.1287 46.1008 29.4557 45.2514C29.5108 45.1053 29.5659 44.9591 29.6226 44.8086C30.0313 43.7333 30.0313 43.7333 30.1832 43.5813C30.8133 43.6399 31.3489 43.7809 31.9344 44.0159C32.0866 44.0752 32.2388 44.1344 32.3956 44.1955C32.7109 44.3202 33.0257 44.446 33.3402 44.5727C34.5823 45.0533 35.5752 45.2885 36.8255 44.7406C36.9144 44.6991 37.0034 44.6576 37.095 44.6148C37.2896 44.5297 37.4845 44.445 37.6794 44.3606C37.7753 44.3184 37.8712 44.2762 37.97 44.2327C38.3934 44.0495 38.8206 43.8835 39.2528 43.7219C39.4618 43.6423 39.4618 43.6423 39.675 43.5612C40.1948 43.4255 40.6269 43.4299 41.1626 43.4491Z" fill="#FAD7C8"/>
<path d="M30.4478 40.8613C33.2391 42.1214 37.1131 42.2408 39.9764 41.1727C40.1652 41.0968 40.3525 41.0173 40.5388 40.9356C41.3909 40.5695 42.194 40.4026 43.1138 40.2991C43.2531 40.2826 43.3923 40.2661 43.5358 40.2491C44.5789 40.1358 45.5444 40.1311 46.5862 40.2743C46.8232 40.2994 47.0602 40.3242 47.2972 40.3487C47.4555 40.3678 47.6137 40.3869 47.7767 40.4066C47.7767 40.4939 47.7767 40.5812 47.7767 40.6711C47.6454 40.6906 47.5141 40.71 47.3789 40.73C45.6846 41.0015 44.2633 41.5488 42.7986 42.4637C42.474 42.6624 42.1455 42.844 41.8075 43.0191C41.709 43.0703 41.6104 43.1215 41.5089 43.1742C41.1406 43.3259 40.7711 43.4187 40.3841 43.5104C39.9229 43.6274 39.4776 43.7854 39.0296 43.9451C38.9326 43.9792 38.8355 44.0132 38.7356 44.0483C37.9529 44.3277 37.2061 44.6583 36.4589 45.023C35.1888 45.4296 34.1309 45.0403 32.9281 44.5735C32.7698 44.5132 32.6114 44.4529 32.4482 44.3908C31.132 43.8783 29.9719 43.2638 28.7964 42.4807C27.358 41.5263 25.9122 40.9534 24.2306 40.5389C24.2306 40.4516 24.2306 40.3642 24.2306 40.2743C26.1868 39.9028 28.6164 40.0325 30.4478 40.8613Z" fill="#3A1D67"/>
<path d="M9.28259 38.9515C10.3247 38.9348 11.3664 38.9189 12.4086 38.9104C12.8939 38.9062 13.3791 38.9006 13.8643 38.8916C14.3318 38.883 14.7991 38.8782 15.2667 38.8762C15.5317 38.874 15.7966 38.8678 16.0616 38.8615C17.2376 38.8611 17.2376 38.8611 17.572 39.1258C17.7131 39.3396 17.7131 39.3396 17.8809 39.7452C18.1403 39.9663 18.1403 39.9663 18.4183 40.1172C18.5071 40.1699 18.596 40.2226 18.6875 40.2769C19.2295 40.5562 19.7568 40.5793 20.3529 40.6133C20.4458 40.619 20.5386 40.6247 20.6343 40.6306C20.8629 40.6446 21.0916 40.6579 21.3202 40.6711C20.9708 40.9537 20.6231 41.225 20.2537 41.4814C19.7291 41.9436 19.7291 41.9436 19.336 43.1845C16.0184 43.1845 12.7008 43.1845 9.28259 43.1845C9.28259 41.7876 9.28259 40.3907 9.28259 38.9515Z" fill="#B87DEA"/>
<path d="M54.0429 38.8813C54.4593 38.8593 54.869 38.8624 55.2858 38.8739C55.4378 38.8751 55.5897 38.8762 55.7462 38.8773C56.2316 38.8818 56.7166 38.8917 57.2018 38.9018C57.5308 38.9058 57.8598 38.9094 58.1888 38.9127C58.9954 38.9208 59.8014 38.9363 60.6081 38.9514C60.6081 40.3483 60.6081 41.7452 60.6081 43.1845C57.858 43.1845 55.1078 43.1845 52.2743 43.1845C52.0997 42.7479 51.9251 42.3114 51.7452 41.8616C51.2309 41.4116 50.7679 41.0975 50.1578 40.8034C50.1578 40.7597 50.1578 40.7161 50.1578 40.6711C50.2888 40.6597 50.4198 40.6483 50.5547 40.6365C52.0003 40.5033 52.0003 40.5033 53.2003 39.7451C53.2599 39.6114 53.3195 39.4776 53.3809 39.3398C53.7294 38.9514 53.7294 38.9514 54.0429 38.8813Z" fill="#B77CEA"/>
<path d="M5.44641 48.8726C24.872 48.8726 44.2976 48.8726 64.3118 48.8726C64.3118 48.9162 64.3118 48.9599 64.3118 49.0048C57.1964 49.0048 50.0809 49.0048 42.7499 49.0048C42.7062 49.2231 42.6626 49.4414 42.6176 49.6662C42.212 50.3591 41.6327 50.6077 40.8979 50.8568C40.4934 50.9246 40.1005 50.9307 39.6909 50.9274C39.5767 50.9285 39.4625 50.9296 39.3449 50.9308C38.9712 50.9338 38.5976 50.9329 38.2239 50.9317C37.9618 50.9324 37.6998 50.9332 37.4377 50.9342C36.8899 50.9356 36.3421 50.935 35.7943 50.933C35.0949 50.9308 34.3957 50.9339 33.6963 50.9385C33.1556 50.9414 32.6148 50.9412 32.074 50.9401C31.8163 50.94 31.5586 50.9409 31.3009 50.9429C28.6298 50.9601 28.6298 50.9601 27.6697 50.1954C27.3165 49.8231 27.1406 49.5324 27.1406 49.0048C19.9815 49.0048 12.8224 49.0048 5.44641 49.0048C5.44641 48.9612 5.44641 48.9175 5.44641 48.8726Z" fill="#8047C4"/>
<path d="M34.6973 0.00274037C34.8307 0.00151543 34.8307 0.00151543 34.9668 0.000265743C38.1907 -0.0187452 41.0043 0.982358 43.5436 2.97081C43.8082 3.23538 43.8082 3.23538 43.8578 3.69009C43.8082 4.16135 43.8082 4.16135 43.5932 4.41764C43.1811 4.60201 42.9364 4.607 42.4854 4.55819C42.1586 4.36482 41.8698 4.17208 41.5677 3.94639C38.9565 2.09842 35.7151 1.5391 32.5891 2.06964C30.8425 2.39791 29.2891 3.08778 27.9096 4.21095C27.5351 4.49844 27.3977 4.55946 26.9092 4.64087C26.4793 4.55819 26.4793 4.55819 26.1569 4.34324C25.9502 4.02907 25.9502 4.02907 25.851 3.65702C26.0703 2.72484 27.0744 2.25078 27.8352 1.76374C28.6384 1.28661 29.4309 0.891383 30.3155 0.589741C30.5385 0.511728 30.5385 0.511728 30.766 0.432139C32.0559 0.0344544 33.3588 0.00794424 34.6973 0.00274037Z" fill="#6D36BB"/>
<path d="M9.28259 43.1844C12.6002 43.1844 15.9178 43.1844 19.336 43.1844C19.467 43.621 19.5979 44.0575 19.7329 44.5073C19.9102 44.8432 19.9102 44.8432 20.1214 45.086C20.1854 45.1661 20.2493 45.2463 20.3152 45.3289C20.5517 45.5937 20.8046 45.8436 21.0557 46.0946C17.1706 46.0946 13.2854 46.0946 9.28259 46.0946C9.28259 45.1343 9.28259 44.1739 9.28259 43.1844Z" fill="#9354D5"/>
<path d="M52.1419 42.7876C52.1856 42.9186 52.2292 43.0495 52.2742 43.1844C55.0243 43.1844 57.7745 43.1844 60.6079 43.1844C60.6079 44.1448 60.6079 45.1052 60.6079 46.0946C57.2467 46.0946 53.8854 46.0946 50.4222 46.0946C51.0837 45.4332 51.0837 45.4332 51.3126 45.2265C52.0119 44.5366 52.0594 43.7341 52.1419 42.7876Z" fill="#9052D4"/>
<path d="M40.2366 4.95508C40.7507 5.4043 40.7507 5.4043 40.8401 5.88105C40.7657 6.27789 40.7657 6.27789 40.4929 6.60033C39.9627 6.88232 39.7549 6.84486 39.1783 6.67474C38.9716 6.5555 38.7679 6.43092 38.5665 6.3027C36.8674 5.24707 34.9372 5.0972 32.9942 5.43925C32.0882 5.69078 31.3294 6.10544 30.5475 6.62307C30.1255 6.83617 29.8563 6.85245 29.3895 6.80702C29.1415 6.66647 29.1415 6.66647 28.9926 6.41018C28.9017 5.98026 28.9017 5.98026 28.9926 5.4842C29.5484 4.79639 30.3026 4.36205 31.1092 4.0291C31.2241 3.98136 31.339 3.93361 31.4574 3.88442C34.3426 2.75929 37.68 3.26206 40.2366 4.95508Z" fill="#6F38BB"/>
<path d="M37.0618 7.46838C37.3734 7.95415 37.3856 8.35085 37.3264 8.92348C36.9972 9.58174 36.6771 9.83952 36.0035 10.114C34.9969 10.2248 33.972 10.2639 33.0933 9.71717C32.7987 9.46125 32.6057 9.27092 32.4319 8.92348C32.4023 8.26658 32.4648 7.84689 32.9032 7.34437C34.1587 6.47953 35.8588 6.58924 37.0618 7.46838Z" fill="#6731B2"/>
<path d="M29.7863 35.2476C30.6305 36.5138 30.7713 37.7033 30.4725 39.1995C30.3501 39.7162 30.1318 40.1864 29.9186 40.6711C29.5548 40.6302 29.191 40.5888 28.8273 40.5471C28.7245 40.5356 28.6216 40.5241 28.5157 40.5122C28.4159 40.5007 28.3162 40.4892 28.2134 40.4773C28.0762 40.4618 28.0762 40.4618 27.9363 40.4459C27.6648 40.4058 27.4067 40.3408 27.1407 40.2743C26.8434 40.2452 26.5457 40.2207 26.2478 40.1999C26.0929 40.1888 25.9381 40.1777 25.7786 40.1663C25.6606 40.1583 25.5426 40.1502 25.421 40.142C25.421 40.0983 25.421 40.0547 25.421 40.0097C25.5888 39.9639 25.5888 39.9639 25.76 39.9172C26.5681 39.6849 27.2841 39.4551 27.9762 38.9711C28.1989 38.8192 28.1989 38.8192 28.4754 38.7003C28.7972 38.5147 28.8533 38.3669 28.9926 38.0255C29.0474 37.9076 29.1021 37.7898 29.1585 37.6684C29.5197 36.8436 29.7413 36.148 29.7863 35.2476Z" fill="#BE8CEC"/>
<path d="M40.898 35.3798C40.9417 35.3798 40.9853 35.3798 41.0303 35.3798C41.0528 35.5012 41.0753 35.6226 41.0985 35.7477C41.3806 37.1761 41.6352 38.2437 42.8822 39.0837C43.6951 39.5696 44.4651 39.8446 45.3956 40.0097C45.3956 40.0533 45.3956 40.097 45.3956 40.142C44.8614 40.2179 44.3272 40.2932 43.7929 40.368C43.6114 40.3935 43.4298 40.4192 43.2483 40.445C42.9866 40.4822 42.7249 40.5188 42.4632 40.5553C42.2273 40.5886 42.2273 40.5886 41.9866 40.6225C41.6183 40.6644 41.2681 40.6809 40.898 40.6711C40.8117 40.4869 40.7265 40.3021 40.6417 40.1172C40.5941 40.0143 40.5466 39.9115 40.4975 39.8056C39.8867 38.2626 40.2943 36.8374 40.898 35.3798Z" fill="#BE8BEB"/>
<path d="M35.3422 45.1687C36.2732 45.211 37.0715 45.6052 37.8555 46.0947C38.1015 46.3856 38.1015 46.3856 38.2524 46.6238C38.2087 46.7111 38.1651 46.7984 38.1201 46.8884C37.7309 46.6773 37.3425 46.4647 36.9543 46.2518C36.789 46.1621 36.789 46.1621 36.6203 46.0706C36.5141 46.0122 36.408 45.9538 36.2986 45.8937C36.1521 45.8137 36.1521 45.8137 36.0026 45.732C35.743 45.5681 35.5493 45.3941 35.3422 45.1687Z" fill="#F7C5B5"/>
<path d="M33.8871 25.8556C34.018 25.8992 34.149 25.9429 34.2839 25.9879C34.562 26.0005 34.8406 26.0051 35.119 26.0044C35.3392 26.0049 35.3392 26.0049 35.5639 26.0054C35.9861 25.9886 36.3826 25.9346 36.7973 25.8556C36.7973 25.9429 36.7973 26.0302 36.7973 26.1202C36.0131 26.5384 35.3007 26.6213 34.4162 26.517C34.1077 26.3821 34.1077 26.3821 33.8871 26.2524C33.8871 26.1215 33.8871 25.9905 33.8871 25.8556Z" fill="#F3B5A5"/>
<path d="M38.517 27.972C38.7135 28.103 38.7135 28.103 38.9139 28.2366C38.9619 28.5379 38.9619 28.5379 38.9552 28.8898C38.9547 29.0055 38.9542 29.1213 38.9537 29.2406C38.9139 29.5594 38.9139 29.5594 38.6493 29.9563C38.4743 29.3001 38.5053 28.6452 38.517 27.972Z" fill="#EFCBBF"/>
<path d="M29.7864 35.2476C30.0498 35.6426 30.1755 35.9879 30.3155 36.4381C30.1449 36.6201 29.9681 36.7963 29.7864 36.9672C29.6991 36.9672 29.6118 36.9672 29.5219 36.9672C29.6092 36.3997 29.6965 35.8322 29.7864 35.2476Z" fill="#C094E2"/>
<path d="M36.7973 25.8556C36.7973 25.9429 36.7973 26.0302 36.7973 26.1202C36.3421 26.4042 36.0338 26.3978 35.5076 26.3351C35.3773 26.3204 35.247 26.3058 35.1128 26.2907C35.0139 26.2781 34.915 26.2654 34.8131 26.2524C34.8131 26.2088 34.8131 26.1651 34.8131 26.1202C35.0942 26.0758 35.3753 26.0318 35.6564 25.9879C35.8129 25.9633 35.9695 25.9388 36.1308 25.9135C36.5328 25.8556 36.5328 25.8556 36.7973 25.8556Z" fill="#FCC6B0"/>
<path d="M27.0084 39.7452C26.8774 39.9416 26.8774 39.9416 26.7438 40.142C26.4286 40.1808 26.4286 40.1808 26.0659 40.1668C25.9455 40.1632 25.8251 40.1597 25.7011 40.156C25.6087 40.1514 25.5162 40.1468 25.421 40.142C25.421 40.0984 25.421 40.0547 25.421 40.0097C25.6356 39.9397 25.8506 39.871 26.0659 39.803C26.1856 39.7647 26.3053 39.7263 26.4286 39.6868C26.7438 39.6129 26.7438 39.6129 27.0084 39.7452Z" fill="#CFA3DB"/>
<path d="M35.1602 44.8959C35.3223 44.9345 35.3223 44.9345 35.4878 44.9739C35.6121 45.0049 35.6121 45.0049 35.7389 45.0364C35.7389 45.0801 35.7389 45.1238 35.7389 45.1687C35.5725 45.1742 35.4061 45.1796 35.2346 45.1853C35.141 45.1883 35.0474 45.1914 34.9509 45.1946C34.6807 45.1687 34.6807 45.1687 34.2838 44.9042C34.632 44.73 34.7867 44.8052 35.1602 44.8959Z" fill="#4E336E"/>
<path d="M29.5218 30.6177C29.6091 30.6613 29.6964 30.705 29.7864 30.75C29.7427 31.0992 29.6991 31.4484 29.6541 31.8082C29.5668 31.7209 29.4795 31.6336 29.3895 31.5436C29.4391 31.0641 29.4391 31.0641 29.5218 30.6177Z" fill="#F1C8BF"/>
<path d="M33.0935 7.20386C33.1808 7.24751 33.2681 7.29116 33.358 7.33614C33.1895 7.60577 33.0127 7.87036 32.8289 8.12983C32.7416 8.12983 32.6543 8.12983 32.5643 8.12983C32.6389 7.69733 32.7627 7.49147 33.0935 7.20386Z" fill="#7343B6"/>
</svg>
