<svg width="70" height="52" viewBox="0 0 70 52" fill="none" xmlns="http://www.w3.org/2000/svg">
<path d="M56.632 13.0354C57.7442 13.484 58.745 14.0159 59.3091 15.1294C59.5473 15.7373 59.6489 16.3295 59.6772 16.98C59.692 16.9031 59.7068 16.8261 59.7221 16.7469C59.8846 15.9988 60.1186 15.4626 60.5861 14.8592C60.6486 14.7696 60.7111 14.6801 60.7755 14.5878C61.2729 14.0465 61.9364 13.5344 62.669 13.3948C62.9089 13.4453 62.9089 13.4453 63.1298 13.6536C63.5913 14.4014 63.6141 15.2102 63.5149 16.0711C63.2248 17.2336 62.6459 18.3442 61.6213 18.9936C61.4814 19.073 61.4814 19.073 61.3388 19.1541C61.0255 19.3396 61.0255 19.3396 60.7881 19.6058C60.7397 19.8909 60.7397 19.8909 60.7502 20.2118C60.7494 20.318 60.7486 20.4242 60.7478 20.5337C60.8019 21.0508 60.943 21.5324 61.0911 22.0296C61.119 21.9604 61.147 21.8912 61.1757 21.8199C61.3045 21.5024 61.4345 21.1853 61.5645 20.8682C61.6084 20.7594 61.6523 20.6505 61.6976 20.5384C62.2713 19.1446 62.9776 18.129 64.3358 17.4033C65.0574 17.1039 65.7035 17.0513 66.4752 17.0621C66.6104 17.0622 66.6104 17.0622 66.7484 17.0623C67.4108 17.0668 67.4108 17.0668 67.7565 17.182C67.7941 17.8607 67.7513 18.3863 67.4535 18.9999C67.4192 19.0737 67.3848 19.1475 67.3494 19.2235C66.8122 20.2851 66.0268 20.8915 64.9287 21.3227C64.5633 21.4408 64.1949 21.5475 63.823 21.6435C63.0363 21.8525 62.4836 22.1742 62 22.8375C61.9306 22.9711 61.8627 23.1056 61.798 23.2415C61.8999 23.2399 62.0018 23.2383 62.1068 23.2367C62.4855 23.2312 62.8641 23.2277 63.2428 23.2249C63.4066 23.2234 63.5704 23.2213 63.7342 23.2187C63.9699 23.215 64.2055 23.2133 64.4411 23.2119C64.5142 23.2104 64.5872 23.2088 64.6624 23.2072C64.9777 23.2071 65.1978 23.2229 65.4768 23.3759C65.9623 23.8911 65.7684 24.9512 65.7491 25.6093C65.6774 27.0974 65.1003 28.6497 64.0198 29.705C63.8698 29.805 63.8698 29.805 63.7168 29.907C63.7883 29.9076 63.8597 29.9082 63.9333 29.9088C64.6065 29.9146 65.2797 29.9219 65.9528 29.9308C66.2989 29.9353 66.645 29.9393 66.9911 29.942C67.3889 29.9451 67.7867 29.9506 68.1845 29.9563C68.3089 29.9569 68.4332 29.9576 68.5614 29.9582C68.7342 29.9612 68.7342 29.9612 68.9105 29.9643C69.0629 29.966 69.0629 29.966 69.2184 29.9677C69.5109 30.0139 69.6027 30.0754 69.7763 30.3109C69.8155 30.5074 69.8155 30.5074 69.8166 30.7275C69.817 30.8072 69.8174 30.8869 69.8178 30.969C69.816 31.0932 69.816 31.0932 69.8142 31.2199C69.8154 31.3027 69.8166 31.3855 69.8178 31.4708C69.8174 31.5504 69.817 31.6301 69.8166 31.7122C69.8162 31.7848 69.8159 31.8575 69.8155 31.9323C69.763 32.1957 69.6946 32.2793 69.4734 32.4318C69.1979 32.4754 69.1979 32.4754 68.8694 32.4834C68.7519 32.487 68.6344 32.4906 68.5134 32.4943C68.3907 32.4966 68.268 32.4989 68.1415 32.5012C68.0177 32.5046 67.8938 32.5081 67.7662 32.5117C67.46 32.52 67.1538 32.527 66.8476 32.5328C67.0703 33.5268 67.3082 34.5142 67.592 35.4927C67.6128 35.5646 67.6335 35.6365 67.6549 35.7106C67.7591 36.071 67.8649 36.4309 67.9727 36.7902C68.0119 36.9247 68.0511 37.0592 68.0903 37.1938C68.1433 37.3718 68.1433 37.3718 68.1975 37.5535C68.2661 37.9093 68.2625 38.1444 68.1605 38.4913C67.8083 38.726 67.6485 38.7233 67.2314 38.7351C67.1094 38.739 66.9873 38.7429 66.8616 38.7469C66.6703 38.7516 66.6703 38.7516 66.4752 38.7564C66.3465 38.7603 66.2178 38.7642 66.0852 38.7682C65.7671 38.7777 65.4489 38.7864 65.1307 38.7942C65.1608 38.8518 65.1909 38.9094 65.2219 38.9688C65.5822 39.6722 65.8874 40.3915 66.1848 41.1234C66.2908 41.3824 66.3972 41.6413 66.5036 41.9001C66.5449 42.0007 66.5449 42.0007 66.587 42.1033C66.7957 42.6101 67.0085 43.1151 67.2231 43.6194C67.2545 43.693 67.2859 43.7667 67.3182 43.8426C67.4704 44.1998 67.6229 44.5568 67.7758 44.9137C68.0835 45.6339 68.3791 46.3569 68.654 47.0903C68.8043 47.4757 68.9771 47.8492 69.1511 48.2244C69.3063 48.5664 69.447 48.913 69.583 49.2631C69.6421 49.4142 69.7034 49.5645 69.7677 49.7136C69.9721 50.2037 70.0394 50.5832 69.9783 51.1152C69.7587 51.476 69.5575 51.6639 69.1704 51.8222C68.9413 51.8476 68.9413 51.8476 68.6845 51.8477C68.5861 51.8483 68.4878 51.8489 68.3865 51.8494C68.2785 51.849 68.1706 51.8486 68.0593 51.8482C67.9441 51.8485 67.8289 51.8489 67.7102 51.8492C67.389 51.85 67.0677 51.8499 66.7465 51.8494C66.3976 51.8491 66.0486 51.8499 65.6997 51.8506C65.0877 51.8516 64.4756 51.8519 63.8636 51.8517C62.9534 51.8514 62.0433 51.8522 61.1332 51.8533C59.4133 51.8552 57.6935 51.8558 55.9736 51.8559C54.6457 51.856 53.3179 51.8564 51.99 51.8571C51.6081 51.8573 51.2263 51.8574 50.8444 51.8576C50.7494 51.8577 50.6545 51.8577 50.5567 51.8578C47.8857 51.859 45.2146 51.8598 42.5435 51.8597C42.3924 51.8597 42.3924 51.8597 42.2382 51.8597C41.7275 51.8597 41.2169 51.8597 40.7062 51.8596C40.554 51.8596 40.554 51.8596 40.3988 51.8596C40.1937 51.8596 39.9886 51.8596 39.7835 51.8596C36.5915 51.8595 33.3995 51.861 30.2074 51.8638C26.6234 51.8669 23.0393 51.8686 19.4552 51.8684C19.0732 51.8684 18.6913 51.8684 18.3093 51.8684C18.2153 51.8684 18.1212 51.8684 18.0243 51.8684C16.5089 51.8684 14.9934 51.8697 13.4779 51.8714C11.9556 51.8731 10.4333 51.8733 8.91108 51.872C8.00604 51.8712 7.10102 51.8716 6.19599 51.8736C5.59195 51.8748 4.98793 51.8745 4.3839 51.8731C4.0394 51.8723 3.69494 51.8722 3.35044 51.8738C2.97974 51.8752 2.60912 51.8741 2.23843 51.8725C2.07718 51.874 2.07718 51.874 1.91267 51.8755C1.30874 51.8696 0.954414 51.8242 0.495991 51.4182C0.28347 51.0763 0.278332 50.8173 0.340682 50.4246C0.459036 49.9489 0.678762 49.5086 0.881022 49.0638C0.95513 48.898 0.95513 48.898 1.03073 48.7289C1.43337 47.8316 1.84845 46.9401 2.26394 46.0487C2.67895 45.153 3.06336 44.2462 3.44322 43.3352C3.77516 42.5438 4.13211 41.7736 4.53566 41.0161C4.43073 40.9977 4.3258 40.9794 4.2177 40.9604C1.77976 40.5258 1.77976 40.5258 1.20293 39.8042C0.818019 38.9755 0.811879 38.0244 0.74847 37.1279C0.736243 36.9667 0.723888 36.8055 0.711412 36.6444C0.692164 36.3957 0.672985 36.147 0.65421 35.8982C0.596579 35.137 0.528242 34.377 0.458581 33.6168C0.319818 32.0928 0.192606 30.568 0.11096 29.0397C0.0984758 28.8125 0.0845692 28.5854 0.069143 28.3584C0.0488858 28.0498 0.0347823 27.7416 0.0225921 27.4327C0.015733 27.3434 0.0088739 27.2541 0.00180694 27.1621C-0.00656324 26.7912 0.00397649 26.5687 0.26156 26.2895C0.815399 25.8871 1.41069 25.7166 2.07399 25.5833C2.17144 25.5625 2.26889 25.5418 2.36929 25.5205C3.16045 25.3594 3.92925 25.2729 4.73765 25.2614C4.80555 25.26 4.87346 25.2586 4.94343 25.2572C6.16921 25.2336 6.16921 25.2336 6.5555 25.3623C6.60549 25.2124 6.60549 25.2124 6.65649 25.0594C8.72741 23.6318 12.1427 23.5846 14.5336 24.0079C15.4707 24.2003 16.5652 24.465 17.2606 25.1604C17.2702 25.2958 17.2729 25.4317 17.2728 25.5674C17.273 25.6989 17.273 25.6989 17.2732 25.8331C17.2728 25.93 17.2725 26.0269 17.2721 26.1267C17.2721 26.2282 17.2721 26.3297 17.2721 26.4342C17.2721 26.7714 17.2713 27.1085 17.2705 27.4457C17.2703 27.6788 17.2702 27.9118 17.2701 28.1449C17.2697 28.7597 17.2687 29.3745 17.2676 29.9893C17.2663 30.7263 17.2659 31.4632 17.2653 32.2002C17.2643 33.3209 17.2624 34.4417 17.2606 35.5625C20.2268 35.5625 23.1929 35.5625 26.2489 35.5625C25.6217 36.817 23.824 37.5209 22.6132 38.0873C22.2327 38.2141 21.8947 38.2784 21.5023 38.1883C21.3025 38.0302 21.1442 37.8549 20.974 37.6656C20.5498 37.2283 20.0791 37.0551 19.4761 37.0332C18.8878 37.0603 18.4695 37.1868 18.037 37.6076C17.6694 38.2066 17.5304 38.9099 17.6646 39.6022C18.0316 40.3468 18.6215 40.7309 19.3815 41.0161C20.3804 41.3205 21.507 41.0796 22.5059 40.8898C22.6931 40.8558 22.6931 40.8558 22.884 40.8211C23.4971 40.7065 24.0862 40.5768 24.6772 40.3786C26.2049 39.9009 27.9598 40.2147 29.4794 40.5742C29.7872 40.6316 30.0774 40.6254 30.3896 40.6121C31.1359 39.0869 31.6097 37.3421 31.0496 35.6631C30.9046 35.2831 30.7413 34.9116 30.5743 34.5409C29.7972 32.7752 30.1482 30.7036 30.5915 28.8971C30.6137 28.8044 30.6358 28.7117 30.6586 28.6162C31.0538 26.9625 31.0538 26.9625 31.1975 26.6752C29.6921 27.2004 29.6921 27.2004 28.5717 28.2911C28.3925 28.1119 28.4324 27.8719 28.4202 27.6283C28.4208 27.1328 28.4826 26.8849 28.8179 26.5174C28.8823 26.4569 28.9468 26.3964 29.0131 26.334C29.2031 26.1694 29.2031 26.1694 29.2786 25.8673C29.1865 25.6292 29.1865 25.6292 29.0451 25.3813C28.6067 24.5398 28.4446 23.8673 28.6853 22.9385C28.9536 22.1212 29.5431 21.5412 30.1134 20.9167C30.4908 20.4858 30.5483 20.1103 30.6231 19.5616C30.872 17.9305 31.5753 16.4307 32.9116 15.4147C33.1095 15.2824 33.3082 15.1691 33.5203 15.0612C33.5827 15.0289 33.645 14.9966 33.7093 14.9633C34.6976 14.5472 36.1019 14.6258 37.1035 14.9566C38.3934 15.4866 39.1608 16.2376 39.7818 17.485C39.9812 17.9915 40.134 18.5095 40.2789 19.0338C40.5525 19.9961 40.9396 20.6455 41.6123 21.3795C42.3947 22.2352 42.5567 23.0386 42.5382 24.1796C42.4988 24.6779 42.3687 24.9428 42.1046 25.3623C42.0349 25.5297 41.9663 25.6976 41.9026 25.8673C41.9943 25.9173 42.0859 25.9673 42.1803 26.0188C42.5797 26.2895 42.7769 26.6193 42.9125 27.0792C42.9426 27.4192 42.9376 27.749 42.9125 28.0891C42.8459 28.0162 42.7792 27.9433 42.7106 27.8682C42.081 27.2405 41.2566 26.8351 40.3877 26.6752C40.4065 26.737 40.4253 26.7988 40.4446 26.8625C42.1536 32.5197 42.1536 32.5197 40.9073 35.4636C40.4341 36.6279 40.5988 38.2542 41.0774 39.3984C41.226 39.7181 41.3877 40.0268 41.5566 40.3363C41.7006 40.6121 41.7006 40.6121 41.7006 40.8141C42.1908 40.7541 42.6407 40.6476 43.1145 40.5111C44.6449 40.0709 46.1619 40.2797 47.6591 40.7131C48.5053 40.9323 49.3404 41.0579 50.2092 41.1423C50.3012 41.1516 50.3932 41.161 50.488 41.1706C51.7093 41.2775 52.6755 41.1292 53.6618 40.3596C54.0897 39.9422 54.2424 39.6704 54.2741 39.072C54.2556 38.4772 54.0962 38.043 53.7187 37.5823C53.3092 37.2064 52.8994 37.1341 52.3557 37.1445C51.9933 37.1931 51.6484 37.2874 51.2949 37.3804C51.3225 35.7118 51.6281 34.0738 51.9008 32.4318C51.816 32.4341 51.816 32.4341 51.7295 32.4366C51.4731 32.4429 51.2167 32.4468 50.9603 32.4507C50.8713 32.4532 50.7824 32.4558 50.6907 32.4584C50.5623 32.4599 50.5623 32.4599 50.4313 32.4614C50.3131 32.4637 50.3131 32.4637 50.1925 32.4662C49.982 32.4318 49.982 32.4318 49.8047 32.3061C49.6472 32.0839 49.6412 31.9573 49.6423 31.6866C49.6424 31.6019 49.6424 31.5172 49.6425 31.4299C49.6441 31.3419 49.6457 31.2538 49.6474 31.1631C49.6469 31.0304 49.6469 31.0304 49.6464 30.895C49.652 30.2369 49.652 30.2369 49.881 30.008C50.1851 29.9859 50.4802 29.9765 50.7846 29.9758C50.8782 29.9747 50.9718 29.9737 51.0683 29.9727C51.3787 29.9696 51.689 29.9679 51.9994 29.9661C52.2142 29.9643 52.4291 29.9623 52.6439 29.9602C53.21 29.955 53.7762 29.951 54.3424 29.9473C54.9198 29.9432 55.4972 29.9381 56.0746 29.933C57.2081 29.9232 58.3416 29.9147 59.4752 29.907C59.4053 29.8455 59.3354 29.784 59.2634 29.7206C59.1721 29.6395 59.0807 29.5583 58.9865 29.4747C58.8958 29.3945 58.8051 29.3143 58.7117 29.2316C57.6022 28.1801 57.1746 26.5115 57.1319 25.0321C57.1297 24.8456 57.1282 24.659 57.1271 24.4724C57.124 24.3299 57.124 24.3299 57.1208 24.1846C57.1203 24.0935 57.1198 24.0024 57.1192 23.9086C57.1183 23.8265 57.1173 23.7444 57.1164 23.6598C57.1524 23.4435 57.1524 23.4435 57.2627 23.2648C57.5555 23.0759 57.8024 23.1066 58.1477 23.1109C58.2145 23.1114 58.2813 23.1118 58.3502 23.1122C58.5632 23.1139 58.7762 23.1177 58.9892 23.1216C59.1337 23.1231 59.2783 23.1245 59.4229 23.1257C59.777 23.1291 60.131 23.1343 60.4851 23.1405C60.3567 22.4508 60.2272 21.9897 59.6772 21.5247C59.3834 21.3778 59.1186 21.3298 58.7955 21.2813C57.4125 21.0727 56.4002 20.5105 55.4927 19.4283C55.203 19.0135 55.0144 18.5598 54.8296 18.0909C54.7608 17.9222 54.7608 17.9222 54.6907 17.7501C54.6199 17.4529 54.6608 17.2739 54.7286 16.98C56.2792 16.8183 57.7776 17.3601 59.0617 18.2148C59.3038 18.4199 59.4871 18.6457 59.6772 18.8989C59.6629 18.7032 59.6481 18.5075 59.633 18.3119C59.6248 18.2029 59.6166 18.0939 59.6081 17.9817C59.5861 17.6809 59.5861 17.6809 59.4752 17.384C59.3379 17.3783 59.3379 17.3783 59.1979 17.3726C58.1378 17.3153 57.3238 17.2319 56.5314 16.4837C56.2013 16.1119 55.9638 15.7046 55.7385 15.2632C55.704 15.199 55.6695 15.1348 55.6339 15.0687C55.3388 14.4276 55.4093 13.7318 55.4355 13.0413C55.8464 12.8359 56.2107 12.8961 56.632 13.0354Z" fill="#CCADF3"/>
<path d="M36.8906 0.0998316C37.1733 0.115331 37.4555 0.123347 37.7386 0.129764C39.1046 0.162896 40.4558 0.268911 41.8142 0.411042C41.8981 0.419672 41.9819 0.428302 42.0684 0.437193C42.3101 0.46231 42.5517 0.488359 42.7933 0.514795C42.8648 0.52227 42.9362 0.529744 43.0098 0.537445C43.4966 0.592601 43.9531 0.698198 44.4273 0.821321C44.6096 0.85551 44.7924 0.887287 44.9757 0.916001C48.118 1.43062 51.2074 2.16593 54.2072 3.23635C54.5328 3.34828 54.8604 3.4479 55.1905 3.54573C55.831 3.73992 56.4385 3.98713 57.0513 4.25504C57.15 4.29727 57.2487 4.3395 57.3503 4.38301C58.4812 4.86776 59.6046 5.36617 60.7059 5.91509C60.7874 5.95554 60.8688 5.99599 60.9527 6.03766C61.3904 6.25918 61.8045 6.49144 62.2019 6.77984C62.2019 6.81316 62.2019 6.84649 62.2019 6.88083C60.3356 6.88083 58.4692 6.88083 56.5463 6.88083C56.5463 8.91379 56.5463 10.9468 56.5463 13.0413C56.1797 13.0413 55.8131 13.0413 55.4354 13.0413C55.4577 14.4112 55.7606 15.5802 56.7483 16.576C57.5118 17.1824 58.2104 17.196 59.1638 17.225C59.4751 17.283 59.4751 17.283 59.6152 17.4467C59.6947 17.7554 59.7211 18.0504 59.7402 18.3686C59.7478 18.4868 59.7553 18.6051 59.7631 18.7268C59.768 18.8169 59.773 18.907 59.7781 18.9998C59.6312 18.8686 59.6312 18.8686 59.4814 18.7347C59.3453 18.6203 59.2085 18.5067 59.0711 18.3939C59.0123 18.3443 58.9535 18.2947 58.8928 18.2436C57.7314 17.3678 56.1654 16.9311 54.7285 17.081C54.943 18.5314 55.5883 19.623 56.7483 20.5147C57.4112 20.948 58.1024 21.1048 58.8818 21.1964C59.5044 21.2911 59.8849 21.5457 60.283 22.0296C60.528 22.3915 60.4913 22.7133 60.485 23.1405C60.3943 23.1425 60.3036 23.1445 60.2101 23.1466C59.8739 23.1544 59.5378 23.1632 59.2017 23.1726C59.0561 23.1764 58.9105 23.1799 58.765 23.1831C58.5559 23.1877 58.3468 23.1936 58.1378 23.1997C58.0119 23.2029 57.886 23.206 57.7563 23.2093C57.4436 23.2109 57.4436 23.2109 57.2533 23.4435C57.222 23.6486 57.222 23.6486 57.2265 23.8845C57.226 23.9734 57.2256 24.0622 57.2252 24.1538C57.2261 24.2485 57.2271 24.3432 57.228 24.4408C57.2292 24.5855 57.2292 24.5855 57.2303 24.7331C57.256 26.4223 57.6735 28.1133 58.9145 29.3444C59.0746 29.4856 59.2369 29.6243 59.4021 29.7594C59.4595 29.8081 59.5169 29.8568 59.5761 29.907C59.5761 29.9403 59.5761 29.9736 59.5761 30.0079C59.4549 30.009 59.3336 30.01 59.2087 30.0111C58.0688 30.021 56.9289 30.0313 55.789 30.0422C55.2029 30.0478 54.6168 30.0532 54.0307 30.0582C53.4656 30.063 52.9005 30.0683 52.3354 30.0739C52.1193 30.076 51.9032 30.0778 51.6871 30.0796C51.3855 30.082 51.0839 30.085 50.7823 30.0882C50.6921 30.0888 50.6018 30.0894 50.5087 30.09C50.1125 30.0557 50.1125 30.0557 49.7799 30.2099C49.7547 30.5269 49.7612 30.8452 49.761 31.163C49.7597 31.2524 49.7585 31.3418 49.7572 31.4339C49.757 31.5193 49.7568 31.6048 49.7566 31.6928C49.7562 31.7715 49.7558 31.8502 49.7554 31.9313C49.7623 32.1526 49.7623 32.1526 49.9819 32.3308C50.187 32.368 50.187 32.368 50.4214 32.3726C50.5073 32.3765 50.5932 32.3804 50.6817 32.3844C50.7716 32.3875 50.8614 32.3907 50.9539 32.3939C51.0445 32.3978 51.1351 32.4017 51.2285 32.4057C51.4526 32.4152 51.6766 32.4239 51.9007 32.4317C51.8419 33.3589 51.735 34.2715 51.5977 35.1901C51.5619 35.4337 51.5262 35.6774 51.4904 35.9211C51.4656 36.0897 51.4656 36.0897 51.4403 36.2618C51.3869 36.6342 51.3393 37.0068 51.2948 37.3803C51.4093 37.3304 51.5239 37.2804 51.6419 37.2289C52.1828 37.0305 52.6803 36.954 53.231 37.159C53.7931 37.4644 54.1202 37.8877 54.3245 38.4913C54.4304 39.0593 54.417 39.5413 54.091 40.0314C53.519 40.6902 52.7475 41.1321 51.9007 41.319C51.5678 41.3238 51.5678 41.3238 51.219 41.2938C51.0872 41.2824 50.9553 41.2711 50.8194 41.2595C50.7493 41.2527 50.6792 41.2459 50.6069 41.239C50.3773 41.2172 50.1475 41.1984 49.9176 41.1798C48.7921 41.0817 47.7429 40.8723 46.6576 40.5556C46.1449 40.414 45.6651 40.375 45.1343 40.3785C45.0519 40.3787 44.9695 40.3789 44.8846 40.3792C43.5695 40.3685 43.5695 40.3685 42.4075 40.8141C42.1719 40.8182 41.9362 40.8183 41.7006 40.8141C40.8688 39.3105 40.1799 37.5664 40.6571 35.8206C40.7947 35.3998 40.9535 34.9898 41.1222 34.5806C42.0929 32.215 41.2133 29.5589 40.4627 27.2435C40.3877 26.9782 40.3877 26.9782 40.3877 26.6752C41.1999 26.7121 42.058 27.0957 42.6347 27.6725C42.6931 27.7433 42.7514 27.8142 42.8115 27.8871C42.8414 27.3081 42.8026 26.988 42.5085 26.4732C42.5085 26.4066 42.5085 26.3399 42.5085 26.2712C42.3898 26.2338 42.3898 26.2338 42.2686 26.1955C41.9709 26.0537 41.9124 25.9676 41.8015 25.6653C41.864 25.5757 41.9265 25.4862 41.9909 25.3939C42.4786 24.6337 42.4789 23.9172 42.4075 23.0395C42.2194 22.207 41.7128 21.5591 41.1341 20.9495C40.5136 20.2874 40.2375 19.4699 40.0405 18.5959C39.7684 17.4381 39.1578 16.2382 38.1572 15.5555C36.8941 14.8415 35.5273 14.6416 34.0966 14.9251C32.8971 15.3192 31.9724 16.2398 31.3805 17.3335C30.9828 18.1714 30.7313 19.0983 30.6581 20.0232C30.5821 20.4687 30.4598 20.6478 30.1622 20.9818C30.0801 21.0764 29.998 21.1711 29.9133 21.2686C29.8372 21.3531 29.761 21.4376 29.6825 21.5246C29.1896 22.0766 28.7483 22.6868 28.6726 23.4435C28.6539 23.6184 28.6539 23.6184 28.6347 23.7969C28.6395 24.4248 28.9374 24.9958 29.1776 25.5643C29.2452 25.7325 29.3127 25.9008 29.3796 26.0693C29.3048 26.1423 29.3048 26.1423 29.2285 26.2168C29.1638 26.2806 29.0991 26.3444 29.0324 26.4101C28.968 26.4734 28.9035 26.5367 28.8371 26.6018C28.5327 26.9246 28.5607 27.1641 28.5653 27.5968C28.5662 27.7074 28.5671 27.8181 28.5681 27.9321C28.5698 28.0598 28.5698 28.0598 28.5716 28.1901C28.6341 28.1026 28.6966 28.0151 28.761 27.925C29.2677 27.3161 30.0579 26.94 30.7934 26.6752C30.9268 26.6752 31.0601 26.6752 31.1974 26.6752C30.9965 27.6324 30.7829 28.5863 30.5626 29.5391C30.1424 31.369 30.0518 33.2628 30.8542 35.0047C31.551 36.5205 31.4848 38.0992 30.9434 39.6617C30.7821 40.0322 30.5966 40.3666 30.3895 40.7131C29.6871 40.6729 29.0446 40.6178 28.3696 40.4101C26.9807 40.1926 25.5765 40.1813 24.2323 40.6049C22.5384 41.1329 20.3289 41.6718 18.6744 40.8141C18.2011 40.5003 17.811 40.1169 17.5635 39.6022C17.4648 38.9461 17.5467 38.2692 17.8665 37.6833C18.2607 37.23 18.6122 37.0205 19.2058 36.9488C19.8894 36.9201 20.3479 37.0709 20.8963 37.4813C21.0018 37.5905 21.1051 37.7019 21.2055 37.8159C21.5288 38.1116 21.6564 38.1368 22.0829 38.1212C22.5028 38.0585 22.8611 37.8782 23.238 37.6896C23.3215 37.6489 23.4051 37.6082 23.4911 37.5663C25.0796 36.7933 25.0796 36.7933 26.2488 35.5625C23.2827 35.5625 20.3166 35.5625 17.2605 35.5625C17.2626 34.8174 17.2647 34.0724 17.2669 33.3048C17.2664 32.833 17.2657 32.3613 17.2641 31.8895C17.2616 31.1406 17.26 30.3917 17.2637 29.6427C17.2665 29.0389 17.2655 28.4353 17.2617 27.8315C17.2609 27.601 17.2616 27.3706 17.2637 27.1402C17.2664 26.8175 17.2641 26.4952 17.2605 26.1725C17.2625 26.0771 17.2645 25.9816 17.2665 25.8833C17.2602 25.3851 17.2602 25.3851 16.9862 24.9912C14.726 23.5398 11.4308 23.7511 8.91849 24.2795C8.29361 24.4167 7.7647 24.5945 7.18415 24.8661C7.0663 24.9211 6.94845 24.9761 6.82703 25.0327C6.7374 25.0748 6.64777 25.1169 6.55542 25.1603C6.55917 22.9718 6.56522 20.7833 6.57399 18.5947C6.57801 17.5785 6.58128 16.5624 6.58279 15.5462C6.5841 14.6605 6.58682 13.7748 6.59123 12.8891C6.59352 12.4202 6.5951 11.9512 6.595 11.4822C6.59492 11.0407 6.59673 10.5993 6.59997 10.1578C6.60083 9.99583 6.60101 9.83388 6.60044 9.67193C6.59977 9.45052 6.60158 9.22926 6.604 9.00786C6.60437 8.88405 6.60474 8.76024 6.60513 8.63267C6.71203 7.9282 7.18008 7.55778 7.72112 7.15535C8.11555 6.87957 8.52079 6.62697 8.93504 6.38218C9.02289 6.32994 9.11074 6.27771 9.20125 6.22389C9.92091 5.80069 10.653 5.41452 11.407 5.05647C11.6095 4.95982 11.8108 4.86086 12.0121 4.76158C13.1287 4.21652 14.2754 3.76985 15.4427 3.34612C15.5313 3.31391 15.6198 3.28171 15.7111 3.24853C16.6747 2.90007 17.6382 2.57368 18.6283 2.30858C18.8687 2.25895 18.8687 2.25895 18.9774 2.13421C19.0836 2.11963 19.1899 2.10505 19.2993 2.09003C19.6694 2.04715 19.6694 2.04715 19.9514 1.94288C20.7842 1.66853 21.6564 1.51274 22.5121 1.32628C22.6779 1.28947 22.6779 1.28947 22.847 1.25192C24.4406 0.900823 26.0315 0.637903 27.6501 0.43629C27.7346 0.425672 27.8192 0.415054 27.9063 0.404114C29.6104 0.192404 31.312 0.09818 33.0279 0.0512589C33.1505 0.0478568 33.1505 0.0478568 33.2756 0.044386C34.4855 0.012084 35.6823 0.0218092 36.8906 0.0998316Z" fill="#EBDFFB"/>
<path d="M38.469 15.6671C39.473 16.5632 39.9295 17.7694 40.2789 19.0338C40.5526 19.996 40.9397 20.6455 41.6123 21.3795C42.3947 22.2352 42.5568 23.0386 42.5382 24.1796C42.4989 24.6779 42.3688 24.9428 42.1047 25.3623C42.035 25.5297 41.9663 25.6975 41.9027 25.8673C41.9943 25.9173 42.086 25.9673 42.1804 26.0188C42.5798 26.2894 42.777 26.6193 42.9126 27.0792C42.9426 27.4191 42.9377 27.749 42.9126 28.0891C42.846 28.0162 42.7793 27.9433 42.7106 27.8682C42.0811 27.2404 41.2566 26.8351 40.3878 26.6752C40.4066 26.737 40.4254 26.7988 40.4447 26.8625C42.1537 32.5197 42.1537 32.5197 40.9074 35.4636C40.4342 36.6279 40.5989 38.2542 41.0775 39.3983C41.2261 39.718 41.3878 40.0268 41.5567 40.3363C41.7007 40.6121 41.7007 40.6121 41.7007 40.8141C42.1909 40.754 42.6408 40.6476 43.1146 40.5111C44.4821 40.1177 45.9256 40.2158 47.2777 40.6038C48.0781 40.8331 48.8945 40.9913 49.7169 41.117C50.7341 41.2857 51.3987 41.6164 52.0638 42.4264C52.499 43.0847 52.5166 43.7843 52.4058 44.5508C52.0226 45.6411 51.0718 46.3101 50.076 46.8076C49.334 47.163 48.5547 47.3767 47.7602 47.5805C47.5811 47.6274 47.5811 47.6274 47.3985 47.6752C46.7129 47.8443 46.0412 47.9435 45.3364 47.9845C45.2906 47.8991 45.2448 47.8137 45.1975 47.7257C44.8814 47.2492 44.3909 46.9824 43.9225 46.6716C42.6698 45.7931 42.0558 44.942 41.7007 43.4398C39.9908 43.8983 38.283 44.4173 36.657 45.124C35.8991 45.4521 35.4083 45.5201 34.6123 45.2388C34.2652 45.1011 33.9236 44.9544 33.5819 44.8036C33.1775 44.6351 32.7692 44.4964 32.3527 44.3614C31.6498 44.1313 30.9538 43.8878 30.2606 43.63C29.9858 43.5253 29.9858 43.5253 29.6827 43.5408C29.2372 44.7796 28.8776 45.9979 28.6452 47.2945C28.5718 47.6815 28.5718 47.6815 28.4708 47.8835C28.6041 47.9168 28.7374 47.9501 28.8748 47.9845C25.9185 48.0686 22.329 47.6187 20.0573 45.5398C19.4871 44.9353 19.3469 44.2745 19.3602 43.4663C19.4367 42.6459 20.026 41.9329 20.6293 41.4117C21.1869 41.0048 21.805 40.947 22.4744 40.8519C23.5915 40.6804 23.5915 40.6804 24.6773 40.3785C26.205 39.9009 27.9599 40.2147 29.4795 40.5742C29.7873 40.6316 30.0774 40.6254 30.3896 40.6121C31.136 39.0869 31.6097 37.3421 31.0496 35.6631C30.9047 35.2831 30.7414 34.9116 30.5744 34.5408C29.7973 32.7752 30.1483 30.7036 30.5916 28.897C30.6137 28.8043 30.6359 28.7116 30.6587 28.6161C31.0539 26.9625 31.0539 26.9625 31.1976 26.6752C29.6922 27.2004 29.6922 27.2004 28.5718 28.2911C28.3926 28.1119 28.4325 27.8719 28.4203 27.6283C28.4209 27.1328 28.4827 26.8849 28.8179 26.5174C28.8824 26.4569 28.9468 26.3963 29.0132 26.334C29.2032 26.1694 29.2032 26.1694 29.2787 25.8673C29.1866 25.6292 29.1866 25.6292 29.0452 25.3813C28.6068 24.5398 28.4447 23.8672 28.6854 22.9385C28.9537 22.1212 29.5432 21.5412 30.1135 20.9167C30.4909 20.4857 30.5483 20.1103 30.6232 19.5616C30.8721 17.9305 31.5754 16.4307 32.9117 15.4146C33.1096 15.2824 33.3082 15.1691 33.5204 15.0612C33.5827 15.0289 33.6451 14.9966 33.7093 14.9633C35.2185 14.3279 37.1731 14.7756 38.469 15.6671Z" fill="#642FAC"/>
<path d="M22.7142 1.42728C22.7165 4.08541 22.7183 6.74354 22.7194 9.40167C22.7199 10.6358 22.7206 11.8699 22.7218 13.104C22.7228 14.1793 22.7234 15.2545 22.7237 16.3298C22.7238 16.8995 22.7241 17.4692 22.7248 18.0389C22.7255 18.5744 22.7257 19.11 22.7256 19.6456C22.7256 19.8427 22.7258 20.0399 22.7262 20.2371C22.7267 20.5051 22.7266 20.773 22.7263 21.041C22.7267 21.1596 22.7267 21.1596 22.7272 21.2806C22.7257 21.8161 22.7257 21.8161 22.6132 21.9286C22.4074 21.9384 22.2013 21.9409 21.9952 21.9408C21.93 21.9408 21.8647 21.9409 21.7975 21.941C21.5773 21.9412 21.3571 21.9406 21.1369 21.9401C20.9797 21.94 20.8225 21.9401 20.6653 21.9401C20.2371 21.9402 19.809 21.9396 19.3808 21.9389C18.9338 21.9382 18.4869 21.9382 18.0399 21.938C17.193 21.9377 16.346 21.9369 15.4991 21.9359C14.5351 21.9348 13.5711 21.9342 12.6071 21.9337C10.6236 21.9326 8.64001 21.9309 6.65646 21.9286C6.64702 20.1614 6.6399 18.3943 6.63553 16.6271C6.63345 15.8065 6.63061 14.986 6.62599 14.1655C6.62196 13.4502 6.61935 12.735 6.61845 12.0197C6.61793 11.641 6.61669 11.2624 6.61375 10.8837C6.61049 10.4608 6.61041 10.038 6.6106 9.61506C6.60915 9.48975 6.6077 9.36444 6.6062 9.23534C6.6093 8.58963 6.61694 8.1754 7.06043 7.68877C7.61511 7.16555 8.28124 6.76858 8.93509 6.38219C9.02294 6.32995 9.11079 6.27772 9.2013 6.2239C9.92097 5.8007 10.6531 5.41453 11.407 5.05648C11.6096 4.95983 11.8109 4.86087 12.0122 4.76159C13.1287 4.21653 14.2754 3.76986 15.4427 3.34613C15.5313 3.31392 15.6199 3.28172 15.7111 3.24854C16.6748 2.90008 17.6382 2.57369 18.6283 2.30859C18.8688 2.25896 18.8688 2.25896 18.9775 2.13422C19.0837 2.11964 19.1899 2.10506 19.2994 2.09004C19.67 2.04702 19.67 2.04702 19.9546 1.9421C20.3648 1.80665 20.7779 1.7105 21.1993 1.61664C21.2782 1.59829 21.3571 1.57993 21.4383 1.56102C21.5157 1.5437 21.593 1.52639 21.6727 1.50855C21.7418 1.49291 21.8109 1.47727 21.8822 1.46116C22.1611 1.41935 22.4324 1.42522 22.7142 1.42728Z" fill="#CFB2F4"/>
<path d="M13.5802 42.8096C13.7437 42.8103 13.7437 42.8103 13.9105 42.811C14.0955 42.811 14.0955 42.811 14.2842 42.811C14.4192 42.8121 14.5543 42.8131 14.6894 42.8142C14.8272 42.8146 14.965 42.8149 15.1029 42.8151C15.4658 42.8158 15.8287 42.8178 16.1917 42.82C16.562 42.8221 16.9322 42.823 17.3025 42.824C18.0292 42.8262 18.7559 42.8297 19.4825 42.8339C19.4812 42.923 19.4799 43.012 19.4785 43.1038C19.4775 43.2212 19.4765 43.3386 19.4754 43.4596C19.4741 43.5757 19.4728 43.6919 19.4714 43.8115C19.4947 44.5144 19.7157 45.0789 20.1982 45.5923C21.5524 46.7862 23.3534 47.2097 25.0686 47.5995C25.1422 47.6163 25.2158 47.6332 25.2916 47.6506C26.1005 47.8286 26.8923 47.8999 27.7197 47.8898C27.8291 47.8891 27.8291 47.8891 27.9408 47.8884C28.1175 47.8873 28.2941 47.8855 28.4708 47.8835C28.4795 47.811 28.4882 47.7385 28.4972 47.6638C28.6723 46.3738 28.9117 44.6695 29.5817 43.5409C29.9636 43.3732 30.2318 43.5002 30.6082 43.6403C30.7299 43.6848 30.8516 43.7293 30.9771 43.7752C31.1053 43.8233 31.2335 43.8714 31.3617 43.9196C31.6112 44.0119 31.8608 44.1039 32.1104 44.1957C32.2303 44.2398 32.3501 44.2839 32.4736 44.3293C32.8513 44.4632 33.2317 44.5796 33.6166 44.6909C33.8672 44.7659 34.1067 44.8588 34.3473 44.9611C34.4314 44.9945 34.5155 45.028 34.6021 45.0624C34.7925 45.1401 34.9805 45.2234 35.1678 45.3082C36.1486 45.4412 37.2726 44.7987 38.1779 44.4506C39.3368 44.0053 40.4603 43.5946 41.7007 43.4399C41.7398 43.5422 41.7788 43.6445 41.8191 43.7499C41.8722 43.8865 41.9253 44.0229 41.9784 44.1594C42.004 44.2266 42.0295 44.2938 42.0558 44.363C42.5153 45.5347 43.2798 46.2163 44.329 46.8538C44.8017 47.1433 45.1303 47.4228 45.4374 47.8835C47.3097 47.658 49.9748 47.3138 51.3592 45.8964C51.4969 45.7627 51.4969 45.7627 51.6989 45.7627C51.7278 45.703 51.7567 45.6434 51.7865 45.582C51.9009 45.3587 51.9009 45.3587 52.1155 45.0179C52.4139 44.431 52.3545 43.778 52.3049 43.1369C52.2715 43.0369 52.2382 42.9369 52.2039 42.8339C52.9685 42.8128 53.7331 42.7967 54.4979 42.7868C54.8531 42.7821 55.2082 42.7757 55.5633 42.7653C55.9722 42.7535 56.3809 42.7492 56.7899 42.7451C56.9799 42.7381 56.9799 42.7381 57.1738 42.7309C58.0397 42.7304 58.0397 42.7304 58.3981 43.0328C58.5784 43.2619 58.7273 43.4886 58.8693 43.7428C58.9291 43.8324 58.9888 43.922 59.0504 44.0143C59.1201 44.1299 59.1201 44.1299 59.1912 44.2478C59.6366 44.9614 60.1277 45.6413 60.615 46.3266C60.9288 46.7688 61.2405 47.2124 61.5519 47.6563C61.6421 47.7844 61.6421 47.7844 61.7342 47.915C62.5715 49.1087 62.5715 49.1087 62.505 49.6004C62.2422 49.8631 62.061 49.8267 61.703 49.8288C61.618 49.8283 61.533 49.8277 61.4454 49.8272C61.3551 49.8274 61.2649 49.8277 61.1719 49.8279C60.866 49.8284 60.5602 49.8275 60.2544 49.8266C60.0343 49.8267 59.8141 49.8269 59.594 49.8272C58.9865 49.8276 58.379 49.8268 57.7715 49.8258C57.1173 49.8249 56.4632 49.8252 55.809 49.8254C54.6748 49.8255 53.5406 49.8248 52.4064 49.8237C51.2164 49.8225 50.0265 49.8217 48.8366 49.8215C48.7627 49.8215 48.6888 49.8215 48.6126 49.8215C48.2373 49.8214 47.862 49.8213 47.4866 49.8213C44.8262 49.8209 42.1659 49.8195 39.5055 49.8176C36.9205 49.8157 34.3356 49.8143 31.7506 49.8134C31.671 49.8134 31.5913 49.8134 31.5093 49.8134C30.7095 49.8131 29.9097 49.8128 29.1099 49.8126C27.4806 49.8121 25.8513 49.8115 24.222 49.8109C24.1471 49.8109 24.0721 49.8108 23.9949 49.8108C18.9898 49.809 13.9846 49.8057 8.97939 49.8023C8.83285 49.5093 8.84319 49.3209 8.87839 48.9944C9.02762 48.7468 9.17323 48.5369 9.35179 48.3127C9.45382 48.1793 9.55572 48.0459 9.65753 47.9123C9.71154 47.8423 9.76555 47.7723 9.8212 47.7001C10.112 47.3186 10.3911 46.9286 10.671 46.539C10.7272 46.4611 10.7835 46.3831 10.8414 46.3027C11.3331 45.6205 11.8168 44.9335 12.2912 44.2391C12.3414 44.1657 12.3917 44.0923 12.4434 44.0167C12.5436 43.8702 12.6436 43.7235 12.7434 43.5767C12.7892 43.5097 12.835 43.4426 12.8822 43.3736C12.9231 43.3134 12.9641 43.2532 13.0064 43.1911C13.264 42.8394 13.264 42.8394 13.5802 42.8096Z" fill="#8852CC"/>
<path d="M5.13846 25.2495C5.74047 25.2389 6.27132 25.2508 6.85149 25.4086C7.0625 25.4639 7.27291 25.5066 7.4873 25.5466C8.40028 25.723 9.16045 25.9584 9.96791 26.4239C11.6926 27.2234 14.5397 26.7242 16.2767 26.132C16.5746 26.0191 16.868 25.8944 17.1596 25.7663C17.1596 26.3995 17.1596 27.0328 17.1596 27.6852C17.0597 27.6852 16.9597 27.6852 16.8567 27.6852C16.8567 27.7518 16.8567 27.8185 16.8567 27.8871C15.2856 28.4387 13.7619 28.6325 12.1037 28.6256C11.9959 28.6253 11.9959 28.6253 11.8859 28.6249C10.6888 28.6175 10.6888 28.6175 10.1912 28.4931C10.1912 29.193 10.1912 29.8928 10.1912 30.6139C10.8 30.6209 11.4088 30.6269 12.0176 30.6306C12.2242 30.6321 12.4307 30.6341 12.6373 30.6368C14.0721 30.6547 15.3638 30.645 16.6744 29.9847C16.8567 29.907 16.8567 29.907 17.1596 29.907C17.1784 30.9087 17.1927 31.9103 17.2015 32.9121C17.2057 33.3773 17.2114 33.8424 17.2206 34.3076C17.2294 34.7568 17.2342 35.2059 17.2363 35.6552C17.2378 35.8263 17.2407 35.9974 17.2451 36.1685C17.2778 37.5041 17.2778 37.5041 16.9881 37.9434C16.0545 38.7878 14.7226 38.9286 13.5145 38.9185C13.3761 38.9185 13.3761 38.9185 13.2349 38.9184C13.0421 38.9181 12.8493 38.9173 12.6565 38.916C12.3605 38.9142 12.0645 38.914 11.7684 38.914C11.5804 38.9135 11.3923 38.9129 11.2043 38.9122C11.0714 38.912 11.0714 38.912 10.9359 38.9119C10.3156 38.907 10.3156 38.907 10.0902 38.7943C10.0819 38.9172 10.0735 39.04 10.065 39.1667C10.009 39.5894 9.90617 39.8109 9.58525 40.1072C8.40198 40.8662 6.90414 40.8661 5.54304 40.8591C5.28666 40.8583 5.0305 40.8612 4.77414 40.8644C3.65347 40.8692 2.42891 40.8371 1.48697 40.145C0.749058 39.3971 0.818112 38.1126 0.74847 37.1279C0.736243 36.9667 0.723888 36.8055 0.711412 36.6444C0.692164 36.3957 0.672987 36.147 0.654211 35.8982C0.596581 35.137 0.528239 34.377 0.458578 33.6168C0.319815 32.0928 0.192606 30.568 0.11096 29.0397C0.0984758 28.8125 0.0845692 28.5854 0.069143 28.3584C0.0488858 28.0498 0.0347823 27.7416 0.0225921 27.4327C0.015733 27.3434 0.00887389 27.2541 0.00180694 27.1622C-0.00656324 26.7912 0.00397649 26.5687 0.26156 26.2895C0.815399 25.8871 1.41069 25.7166 2.07399 25.5833C2.17144 25.5625 2.26889 25.5418 2.36929 25.5205C3.29651 25.3317 4.1935 25.2774 5.13846 25.2495Z" fill="#844EC9"/>
<path d="M56.6319 13.0354C57.7441 13.484 58.7449 14.0159 59.309 15.1294C59.5471 15.7373 59.6488 16.3295 59.677 16.98C59.6919 16.9031 59.7067 16.8261 59.722 16.7469C59.8845 15.9988 60.1185 15.4626 60.586 14.8592C60.6485 14.7696 60.711 14.6801 60.7753 14.5878C61.2727 14.0465 61.9363 13.5344 62.6689 13.3948C62.9088 13.4453 62.9088 13.4453 63.1297 13.6536C63.5911 14.4014 63.614 15.2102 63.5147 16.0711C63.2247 17.2336 62.6458 18.3442 61.6211 18.9936C61.5279 19.0465 61.4347 19.0995 61.3387 19.1541C61.0253 19.3396 61.0253 19.3396 60.788 19.6058C60.7395 19.8909 60.7395 19.8909 60.7501 20.2118C60.7493 20.318 60.7485 20.4242 60.7477 20.5337C60.8018 21.0508 60.9429 21.5324 61.0909 22.0296C61.1189 21.9604 61.1468 21.8912 61.1756 21.8199C61.3044 21.5024 61.4344 21.1853 61.5643 20.8682C61.6083 20.7594 61.6522 20.6505 61.6975 20.5384C62.2711 19.1446 62.9775 18.129 64.3357 17.4033C65.0573 17.1039 65.7034 17.0513 66.4751 17.0621C66.6103 17.0622 66.6103 17.0622 66.7482 17.0623C67.4107 17.0668 67.4107 17.0668 67.7564 17.182C67.7939 17.8607 67.7512 18.3863 67.4534 18.9999C67.419 19.0737 67.3847 19.1475 67.3493 19.2235C66.8121 20.2851 66.0267 20.8915 64.9286 21.3227C64.5632 21.4408 64.1947 21.5475 63.8229 21.6435C63.0362 21.8525 62.4835 22.1742 61.9999 22.8375C61.9304 22.9711 61.8626 23.1056 61.7979 23.2415C61.8998 23.2399 62.0017 23.2383 62.1067 23.2367C62.4853 23.2312 62.864 23.2277 63.2427 23.2249C63.4065 23.2234 63.5703 23.2213 63.7341 23.2187C63.9697 23.215 64.2053 23.2133 64.441 23.2119C64.514 23.2104 64.5871 23.2088 64.6623 23.2072C64.9776 23.2071 65.1977 23.2229 65.4767 23.3759C65.9622 23.8911 65.7683 24.9512 65.749 25.6093C65.6773 27.0974 65.1001 28.6497 64.0197 29.705C63.9197 29.7716 63.8197 29.8383 63.7167 29.907C63.7882 29.9076 63.8596 29.9082 63.9332 29.9088C64.6064 29.9146 65.2796 29.9219 65.9527 29.9308C66.2988 29.9353 66.6448 29.9393 66.9909 29.942C67.3888 29.9451 67.7866 29.9506 68.1844 29.9563C68.3088 29.9569 68.4331 29.9576 68.5613 29.9582C68.7341 29.9612 68.7341 29.9612 68.9104 29.9643C69.0628 29.966 69.0628 29.966 69.2183 29.9677C69.5108 30.0139 69.6025 30.0754 69.7762 30.3109C69.8154 30.5074 69.8154 30.5074 69.8165 30.7275C69.8169 30.8072 69.8172 30.8869 69.8176 30.969C69.8159 31.0932 69.8159 31.0932 69.8141 31.2199C69.8153 31.3027 69.8164 31.3855 69.8176 31.4708C69.8173 31.5504 69.8169 31.6301 69.8165 31.7122C69.8161 31.7848 69.8158 31.8575 69.8154 31.9323C69.7629 32.1957 69.6945 32.2793 69.4733 32.4318C69.1978 32.4754 69.1978 32.4754 68.8693 32.4834C68.7518 32.487 68.6343 32.4906 68.5132 32.4943C68.3905 32.4966 68.2678 32.4989 68.1414 32.5012C68.0176 32.5046 67.8937 32.5081 67.7661 32.5117C67.4599 32.52 67.1537 32.527 66.8475 32.5328C67.0702 33.5268 67.308 34.5142 67.5919 35.4927C67.6126 35.5646 67.6334 35.6365 67.6548 35.7106C67.759 36.071 67.8647 36.4309 67.9726 36.7902C68.0118 36.9247 68.051 37.0592 68.0901 37.1938C68.1432 37.3718 68.1432 37.3718 68.1974 37.5535C68.2654 37.9063 68.2561 38.1462 68.1604 38.4913C67.7327 38.7051 67.1734 38.6152 66.7029 38.6165C66.4948 38.6175 66.2867 38.6206 66.0786 38.6238C65.8827 38.6246 65.8827 38.6246 65.6829 38.6254C65.5625 38.6263 65.4422 38.6273 65.3182 38.6283C65.223 38.6164 65.1277 38.6045 65.0296 38.5923C64.827 38.2883 64.7649 38.091 64.6825 37.7401C64.6597 37.6445 64.6369 37.5488 64.6134 37.4502C64.5841 37.3272 64.5548 37.2041 64.5247 37.0774C64.302 36.153 64.0434 35.243 63.769 34.3329C63.7391 34.2322 63.7092 34.1316 63.6785 34.0279C63.6518 33.9394 63.6252 33.8508 63.5978 33.7596C63.4834 33.3216 63.4015 32.8757 63.3128 32.4318C60.6132 32.4318 57.9137 32.4318 55.1324 32.4318C55.0991 32.765 55.0658 33.0983 55.0314 33.4417C55.0037 33.628 54.9739 33.8141 54.9403 33.9995C54.9234 34.0954 54.9065 34.1912 54.8892 34.29C54.8715 34.3891 54.8539 34.4883 54.8358 34.5905C54.6817 35.4765 54.563 36.3578 54.4945 37.2547C54.4361 37.9624 54.4361 37.9624 54.2235 38.2893C54.1548 38.181 54.086 38.0727 54.0152 37.9611C53.7375 37.5776 53.4647 37.33 53.0116 37.1784C52.4047 37.092 51.8794 37.2267 51.2947 37.3804C51.3224 35.7118 51.6279 34.0738 51.9007 32.4318C51.8159 32.4341 51.8159 32.4341 51.7293 32.4366C51.473 32.4429 51.2166 32.4468 50.9602 32.4507C50.8712 32.4532 50.7822 32.4558 50.6906 32.4584C50.5622 32.4599 50.5622 32.4599 50.4312 32.4614C50.313 32.4637 50.313 32.4637 50.1924 32.4662C49.9818 32.4318 49.9818 32.4318 49.8046 32.3061C49.647 32.0839 49.6411 31.9573 49.6422 31.6866C49.6422 31.6019 49.6423 31.5172 49.6424 31.4299C49.644 31.3419 49.6456 31.2538 49.6473 31.1631C49.647 31.0746 49.6467 30.9861 49.6463 30.895C49.6519 30.2369 49.6519 30.2369 49.8808 30.008C50.185 29.9859 50.4801 29.9765 50.7845 29.9758C50.8781 29.9747 50.9717 29.9737 51.0682 29.9727C51.3785 29.9696 51.6889 29.9679 51.9993 29.9661C52.2141 29.9643 52.4289 29.9623 52.6438 29.9602C53.2099 29.955 53.7761 29.951 54.3422 29.9473C54.9197 29.9432 55.4971 29.9381 56.0745 29.933C57.208 29.9232 58.3415 29.9147 59.4751 29.907C59.4052 29.8455 59.3353 29.784 59.2633 29.7206C59.1263 29.5989 59.1263 29.5989 58.9864 29.4747C58.8504 29.3544 58.8504 29.3544 58.7116 29.2316C57.6021 28.1801 57.1745 26.5115 57.1317 25.0321C57.1296 24.8456 57.1281 24.659 57.127 24.4724C57.1249 24.3774 57.1228 24.2824 57.1207 24.1846C57.1199 24.048 57.1199 24.048 57.1191 23.9086C57.1182 23.8265 57.1172 23.7444 57.1163 23.6598C57.1523 23.4435 57.1523 23.4435 57.2625 23.2648C57.5554 23.0759 57.8023 23.1066 58.1476 23.1109C58.2144 23.1114 58.2812 23.1118 58.3501 23.1122C58.5631 23.1139 58.776 23.1177 58.989 23.1216C59.1336 23.1231 59.2782 23.1245 59.4228 23.1257C59.7769 23.1291 60.1309 23.1343 60.485 23.1405C60.3565 22.4508 60.2271 21.9897 59.677 21.5247C59.3833 21.3778 59.1185 21.3298 58.7953 21.2813C57.4124 21.0727 56.4001 20.5105 55.4926 19.4283C55.2028 19.0135 55.0143 18.5598 54.8294 18.0909C54.7836 17.9785 54.7378 17.866 54.6906 17.7501C54.6198 17.4529 54.6606 17.2739 54.7285 16.98C56.279 16.8183 57.7775 17.3601 59.0616 18.2148C59.3037 18.4199 59.4869 18.6457 59.677 18.8989C59.6628 18.7032 59.648 18.5075 59.6329 18.3119C59.6247 18.2029 59.6165 18.0939 59.608 17.9817C59.5859 17.6809 59.5859 17.6809 59.4751 17.384C59.3835 17.3802 59.292 17.3764 59.1977 17.3726C58.1377 17.3153 57.3237 17.2319 56.5313 16.4837C56.2012 16.1119 55.9637 15.7046 55.7384 15.2632C55.7039 15.199 55.6694 15.1348 55.6338 15.0687C55.3387 14.4276 55.4092 13.7318 55.4354 13.0413C55.8463 12.8359 56.2106 12.8961 56.6319 13.0354Z" fill="#602EA6"/>
<path d="M47.1533 5.54833C47.3171 5.54571 47.3171 5.54571 47.4843 5.54304C47.6658 5.54097 47.6658 5.54097 47.8509 5.53886C47.9775 5.53706 48.1041 5.53526 48.2346 5.5334C49.4104 5.51724 50.5863 5.5088 51.7621 5.5021C52.6295 5.49705 53.4967 5.48843 54.3639 5.47497C54.9754 5.4658 55.5868 5.46104 56.1983 5.45932C56.5624 5.45817 56.9262 5.45521 57.2902 5.44741C59.084 5.41059 60.6364 5.52758 62.1011 6.67886C62.1344 6.74551 62.1677 6.81217 62.202 6.88084C60.3357 6.88084 58.4694 6.88084 56.5465 6.88084C56.5465 8.91381 56.5465 10.9468 56.5465 13.0413C56.1799 13.0413 55.8133 13.0413 55.4356 13.0413C55.4579 14.4113 55.7608 15.5802 56.7485 16.5761C57.5119 17.1824 58.2106 17.1961 59.164 17.225C59.4753 17.283 59.4753 17.283 59.6153 17.4467C59.6949 17.7554 59.7213 18.0504 59.7404 18.3687C59.7517 18.546 59.7517 18.546 59.7633 18.7269C59.7682 18.8169 59.7731 18.907 59.7782 18.9999C59.6314 18.8686 59.6314 18.8686 59.4816 18.7348C59.3455 18.6204 59.2087 18.5068 59.0713 18.3939C59.0125 18.3443 58.9536 18.2947 58.893 18.2436C57.7316 17.3678 56.1655 16.9311 54.7287 17.081C54.9431 18.5314 55.5885 19.6231 56.7485 20.5147C57.4114 20.948 58.1025 21.1048 58.8819 21.1964C59.5046 21.2911 59.885 21.5457 60.2832 22.0296C60.5282 22.3915 60.4915 22.7133 60.4852 23.1405C60.3945 23.1425 60.3037 23.1445 60.2103 23.1466C59.8741 23.1545 59.538 23.1632 59.2018 23.1726C59.0563 23.1764 58.9107 23.18 58.7651 23.1831C58.556 23.1877 58.347 23.1936 58.1379 23.1997C58.012 23.2029 57.8862 23.206 57.7565 23.2093C57.4438 23.2109 57.4438 23.2109 57.2534 23.4435C57.2133 23.6443 57.1789 23.8464 57.1525 24.0494C55.7848 24.0518 54.4171 24.0536 53.0494 24.0547C52.4144 24.0552 51.7794 24.0559 51.1444 24.0571C50.5321 24.0582 49.9199 24.0588 49.3076 24.059C49.0734 24.0592 48.8393 24.0596 48.6051 24.0601C48.2784 24.0608 47.9517 24.061 47.6249 24.0609C47.4782 24.0615 47.4782 24.0615 47.3284 24.062C47.2399 24.0619 47.1514 24.0617 47.0602 24.0616C46.9828 24.0617 46.9055 24.0618 46.8258 24.0619C46.6493 24.0494 46.6493 24.0494 46.5483 23.9485C46.5382 23.7123 46.5347 23.4792 46.5355 23.243C46.5353 23.1684 46.5352 23.0937 46.535 23.0168C46.5346 22.7647 46.5349 22.5127 46.5353 22.2606C46.5351 22.0806 46.5349 21.9007 46.5347 21.7208C46.5343 21.2306 46.5344 20.7405 46.5348 20.2504C46.535 19.7386 46.5348 19.2269 46.5346 18.7152C46.5344 17.8556 46.5347 16.9961 46.5352 16.1365C46.5357 15.1413 46.5355 14.146 46.535 13.1507C46.5345 12.2979 46.5344 11.445 46.5347 10.5921C46.5349 10.082 46.5349 9.57193 46.5346 9.06182C46.5343 8.58238 46.5345 8.10293 46.5351 7.62348C46.5352 7.44699 46.5351 7.2705 46.5349 7.09401C46.5346 6.85412 46.535 6.61425 46.5355 6.37437C46.5353 6.30361 46.535 6.23284 46.5348 6.15994C46.5372 5.57824 46.5825 5.5564 47.1533 5.54833Z" fill="#CFB3F4"/>
<path d="M30.0882 40.719C30.7498 40.8773 31.4168 40.9877 32.0887 41.0918C32.1757 41.1053 32.2627 41.1189 32.3523 41.1328C32.5271 41.1598 32.702 41.1865 32.8769 41.2127C32.9571 41.225 33.0373 41.2373 33.12 41.25C33.1922 41.2609 33.2645 41.2718 33.3389 41.283C33.5204 41.319 33.5204 41.319 33.7224 41.42C33.8828 41.4312 34.0437 41.4361 34.2046 41.4379C34.3555 41.4398 34.3555 41.4398 34.5095 41.4418C34.6741 41.443 34.6741 41.443 34.8419 41.4441C35.0125 41.4453 35.0125 41.4453 35.1866 41.4466C35.4289 41.448 35.6712 41.449 35.9135 41.4498C36.1579 41.451 36.4024 41.453 36.6468 41.4561C38.1053 41.474 39.4714 41.4197 40.8906 41.0667C41.0931 41.0165 41.296 40.9703 41.4997 40.9254C41.9307 40.8305 42.356 40.728 42.7801 40.6058C42.8905 40.5745 43.0009 40.5433 43.1146 40.5111C43.2132 40.4828 43.2132 40.4828 43.3138 40.4539C44.6295 40.1312 45.9885 40.2339 47.2777 40.6038C48.0781 40.8331 48.8945 40.9913 49.7169 41.1171C50.7341 41.2857 51.3987 41.6164 52.0638 42.4264C52.499 43.0847 52.5166 43.7843 52.4058 44.5508C52.0226 45.6411 51.0718 46.3102 50.076 46.8076C49.334 47.163 48.5547 47.3767 47.7602 47.5805C47.6408 47.6118 47.5215 47.643 47.3985 47.6752C46.7129 47.8444 46.0412 47.9435 45.3364 47.9845C45.2906 47.8991 45.2448 47.8137 45.1975 47.7257C44.8814 47.2492 44.3909 46.9825 43.9225 46.6716C42.6698 45.7931 42.0558 44.9421 41.7007 43.4399C39.9908 43.8983 38.283 44.4173 36.657 45.124C35.8991 45.4521 35.4083 45.5201 34.6123 45.2388C34.2652 45.1011 33.9236 44.9544 33.5819 44.8036C33.1775 44.6351 32.7692 44.4964 32.3527 44.3614C31.6498 44.1313 30.9538 43.8878 30.2606 43.63C29.9858 43.5253 29.9858 43.5253 29.6827 43.5409C29.2372 44.7797 28.8776 45.998 28.6452 47.2945C28.5718 47.6815 28.5718 47.6815 28.4708 47.8835C28.6708 47.9335 28.6708 47.9335 28.8748 47.9845C25.9185 48.0686 22.329 47.6187 20.0573 45.5398C19.4871 44.9353 19.3469 44.2745 19.3602 43.4663C19.4367 42.6459 20.026 41.9329 20.6293 41.4117C21.1869 41.0048 21.805 40.947 22.4744 40.852C23.5915 40.6804 23.5915 40.6804 24.6773 40.3786C26.4212 39.8333 28.3672 40.3038 30.0882 40.719Z" fill="#402172"/>
<path d="M21.3003 1.73024C21.267 1.7969 21.2336 1.86355 21.1993 1.93223C21.187 2.19408 21.1806 2.45338 21.1786 2.71536C21.1776 2.79747 21.1765 2.87958 21.1755 2.96418C21.1723 3.23061 21.1698 3.49705 21.1674 3.76349C21.1655 3.92773 21.1636 4.09196 21.1616 4.2562C21.1547 4.86596 21.1487 5.47574 21.1425 6.08551C21.1279 7.44777 21.1133 8.81002 21.0983 10.2136C16.3325 10.2136 11.5667 10.2136 6.65649 10.2136C6.65649 8.29471 6.65649 8.29471 7.06046 7.68876C7.61514 7.16553 8.28127 6.76856 8.93512 6.38218C9.02297 6.32994 9.11082 6.2777 9.20133 6.22389C9.921 5.80069 10.6531 5.41452 11.4071 5.05646C11.6096 4.95982 11.8109 4.86086 12.0122 4.76158C13.1288 4.21651 14.2754 3.76985 15.4428 3.34611C15.5313 3.31391 15.6199 3.2817 15.7111 3.24852C16.6748 2.90007 17.6383 2.57368 18.6284 2.30858C18.8688 2.25895 18.8688 2.25895 18.9775 2.13421C19.0837 2.11963 19.19 2.10505 19.2994 2.09003C19.6558 2.03744 19.9514 1.94884 20.2904 1.83124C21.0548 1.6075 21.0548 1.6075 21.3003 1.73024Z" fill="#D1B5F4"/>
<path d="M59.778 30.008C60.0397 30.018 60.2986 30.0221 60.5603 30.0214C60.6765 30.0216 60.6765 30.0216 60.795 30.0217C60.959 30.0218 61.1229 30.0216 61.2868 30.0212C61.5377 30.0206 61.7886 30.0212 62.0395 30.0218C62.1987 30.0217 62.3579 30.0216 62.517 30.0214C62.5922 30.0216 62.6673 30.0218 62.7447 30.022C63.0623 30.0206 63.3121 30.0082 63.6157 29.907C63.8047 29.8994 63.9939 29.898 64.183 29.9C64.2993 29.9011 64.4156 29.9021 64.5354 29.9032C64.7238 29.9059 64.7238 29.9059 64.916 29.9086C65.0449 29.9103 65.1737 29.9119 65.3065 29.9136C65.5792 29.9174 65.8519 29.9215 66.1245 29.9259C66.474 29.9315 66.8234 29.9351 67.1729 29.9384C67.5063 29.9419 67.8396 29.9475 68.173 29.9528C68.2986 29.9537 68.4242 29.9547 68.5536 29.9557C68.6699 29.958 68.7862 29.9603 68.906 29.9627C69.0084 29.9642 69.1109 29.9656 69.2165 29.9671C69.5098 30.0138 69.6022 30.0745 69.7762 30.311C69.8154 30.5074 69.8154 30.5074 69.8165 30.7276C69.8169 30.8072 69.8172 30.8869 69.8176 30.969C69.8159 31.0932 69.8159 31.0932 69.8141 31.2199C69.8153 31.3027 69.8164 31.3855 69.8176 31.4708C69.8173 31.5505 69.8169 31.6301 69.8165 31.7122C69.8161 31.7849 69.8158 31.8575 69.8154 31.9324C69.7629 32.1957 69.6945 32.2793 69.4733 32.4318C69.1978 32.4755 69.1978 32.4755 68.8693 32.4835C68.7518 32.4871 68.6343 32.4906 68.5132 32.4943C68.3905 32.4966 68.2678 32.4989 68.1414 32.5012C68.0176 32.5047 67.8937 32.5081 67.7661 32.5117C67.4599 32.52 67.1537 32.527 66.8475 32.5328C67.0702 33.5268 67.308 34.5143 67.5919 35.4927C67.623 35.6006 67.623 35.6006 67.6548 35.7106C67.759 36.071 67.8647 36.4309 67.9726 36.7902C68.0118 36.9247 68.051 37.0593 68.0901 37.1938C68.1255 37.3125 68.1609 37.4312 68.1974 37.5536C68.2654 37.9063 68.2561 38.1462 68.1604 38.4913C67.7327 38.7051 67.1734 38.6152 66.7029 38.6166C66.4948 38.6175 66.2867 38.6207 66.0786 38.6239C65.8827 38.6246 65.8827 38.6246 65.6829 38.6254C65.5625 38.6264 65.4422 38.6273 65.3182 38.6283C65.1753 38.6105 65.1753 38.6105 65.0296 38.5923C64.827 38.2884 64.7649 38.091 64.6825 37.7402C64.6597 37.6445 64.6369 37.5488 64.6134 37.4502C64.5841 37.3272 64.5548 37.2042 64.5247 37.0774C64.302 36.1531 64.0434 35.2431 63.769 34.3329C63.7391 34.2323 63.7092 34.1316 63.6785 34.0279C63.6518 33.9394 63.6252 33.8509 63.5978 33.7596C63.4834 33.3216 63.4015 32.8757 63.3128 32.4318C60.6132 32.4318 57.9137 32.4318 55.1324 32.4318C55.0991 32.7651 55.0658 33.0983 55.0314 33.4417C55.0037 33.6281 54.9739 33.8142 54.9403 33.9995C54.9234 34.0954 54.9065 34.1912 54.8892 34.29C54.8715 34.3892 54.8539 34.4883 54.8358 34.5905C54.6817 35.4766 54.563 36.3578 54.4945 37.2547C54.4361 37.9624 54.4361 37.9624 54.2235 38.2893C54.1548 38.181 54.086 38.0727 54.0152 37.9611C53.7375 37.5776 53.4647 37.3301 53.0116 37.1784C52.4047 37.092 51.8794 37.2267 51.2947 37.3804C51.3224 35.7118 51.6279 34.0739 51.9007 32.4318C51.8441 32.4334 51.7876 32.435 51.7293 32.4366C51.473 32.4429 51.2166 32.4469 50.9602 32.4507C50.8712 32.4533 50.7822 32.4558 50.6906 32.4584C50.5622 32.4599 50.5622 32.4599 50.4312 32.4614C50.3524 32.463 50.2736 32.4646 50.1924 32.4662C49.9818 32.4318 49.9818 32.4318 49.8046 32.3061C49.647 32.0839 49.6411 31.9573 49.6422 31.6866C49.6422 31.6019 49.6423 31.5172 49.6424 31.43C49.644 31.3419 49.6456 31.2538 49.6473 31.1631C49.647 31.0746 49.6467 30.9862 49.6463 30.895C49.6519 30.237 49.6519 30.237 49.8808 30.008C50.187 29.9854 50.4841 29.9755 50.7906 29.9742C50.932 29.9724 50.932 29.9724 51.0762 29.9706C51.3889 29.967 51.7016 29.9648 52.0143 29.9626C52.2309 29.9605 52.4475 29.9583 52.6641 29.956C53.1185 29.9514 53.5728 29.9475 54.0272 29.9441C54.6107 29.9397 55.1942 29.9339 55.7776 29.9278C56.225 29.9231 56.6724 29.919 57.1198 29.915C57.335 29.9131 57.5502 29.911 57.7654 29.9089C58.0657 29.9059 58.366 29.9037 58.6663 29.9016C58.756 29.9006 58.8456 29.8996 58.9379 29.8986C59.5529 29.8954 59.5529 29.8954 59.778 30.008Z" fill="#804CC7"/>
<path d="M9.98916 31.3209C10.0558 31.3209 10.1225 31.3209 10.1911 31.3209C10.1982 32.2778 10.2036 33.2348 10.2068 34.1918C10.2084 34.6362 10.2105 35.0806 10.214 35.5251C10.2173 35.9547 10.2191 36.3842 10.2199 36.8138C10.2204 36.977 10.2215 37.1402 10.2232 37.3034C10.2437 39.4294 10.2437 39.4294 9.65462 40.0503C8.35978 40.8032 7.00672 40.8666 5.54298 40.8591C5.2866 40.8583 5.03044 40.8612 4.77408 40.8644C3.65341 40.8692 2.42885 40.8371 1.48691 40.145C0.738235 39.3853 0.813525 38.0705 0.742099 37.0711C0.729731 36.9089 0.717262 36.7467 0.704695 36.5845C0.679735 36.2608 0.655332 35.9371 0.631343 35.6134C0.60114 35.2092 0.567764 34.8053 0.533014 34.4015C0.523454 34.2892 0.513893 34.177 0.504043 34.0613C0.486734 33.8587 0.469185 33.6561 0.451328 33.4535C0.395344 32.7752 0.386256 32.1023 0.394939 31.4219C0.49259 31.487 0.49259 31.487 0.592214 31.5534C1.24168 31.9804 1.85849 32.1817 2.61676 32.3308C2.69035 32.3482 2.76393 32.3657 2.83975 32.3836C3.40262 32.4797 3.97937 32.4505 4.54919 32.4505C4.77789 32.4507 5.00655 32.4525 5.23525 32.4545C6.89211 32.4635 6.89211 32.4635 8.47428 32.0278C8.62322 31.976 8.7726 31.9255 8.92243 31.8763C9.03921 31.8378 9.03921 31.8378 9.15834 31.7986C9.23255 31.7743 9.30675 31.7499 9.38321 31.7248C9.50193 31.6853 9.62066 31.6457 9.74299 31.6049C9.82422 31.5778 9.90546 31.5507 9.98916 31.5228C9.98916 31.4562 9.98916 31.3895 9.98916 31.3209Z" fill="#5C29A1"/>
<path d="M31.1974 26.6752C30.9965 27.6324 30.7829 28.5863 30.5626 29.5391C30.1424 31.369 30.0517 33.2628 30.8542 35.0047C31.551 36.5205 31.4848 38.0992 30.9434 39.6617C30.7821 40.0322 30.5966 40.3666 30.3895 40.7131C29.6871 40.673 29.0446 40.6178 28.3696 40.4101C26.9807 40.1927 25.5765 40.1814 24.2323 40.6049C22.5384 41.133 20.3289 41.6718 18.6744 40.8141C18.2011 40.5003 17.811 40.1169 17.5635 39.6022C17.4648 38.9461 17.5467 38.2692 17.8665 37.6833C18.2607 37.2301 18.6122 37.0205 19.2058 36.9488C19.8894 36.9202 20.3479 37.0709 20.8962 37.4814C21.0018 37.5905 21.1051 37.7019 21.2055 37.8159C21.5288 38.1116 21.6564 38.1368 22.0829 38.1213C22.5028 38.0585 22.8611 37.8782 23.238 37.6896C23.3215 37.6489 23.4051 37.6082 23.4911 37.5663C24.2253 37.1991 24.893 36.7724 25.5419 36.2695C25.6465 36.1941 25.7512 36.1187 25.859 36.041C26.2139 35.7012 26.3396 35.4082 26.495 34.9502C26.5241 34.8681 26.5533 34.786 26.5833 34.7015C26.8769 33.8421 27.0836 32.9611 27.2964 32.0791C28.2656 28.0958 28.2656 28.0958 29.4518 27.3096C30.5831 26.6752 30.5831 26.6752 31.1974 26.6752Z" fill="#FCD5C4"/>
<path d="M40.3877 26.6752C41.1631 26.7105 41.9149 27.0489 42.505 27.551C42.8118 27.8914 43.0251 28.2666 43.2163 28.6813C43.2846 28.8285 43.358 28.9734 43.4356 29.116C44.0085 30.1782 44.3159 31.3503 44.5284 32.5328C44.6741 33.3124 44.8877 34.0509 45.1659 34.7924C45.207 34.9059 45.207 34.9059 45.249 35.0216C45.5734 35.8554 46.0937 36.3909 46.8385 36.8691C46.903 36.9113 46.9675 36.9536 47.0339 36.9971C48.5034 37.957 48.5034 37.957 50.165 38.3453C50.5468 38.2485 50.7534 37.9656 51.0104 37.681C51.4364 37.2174 51.9195 37.0682 52.532 37.0395C53.0685 37.0492 53.4279 37.2187 53.8196 37.5823C54.2574 38.1126 54.4164 38.6513 54.3782 39.3359C54.2354 40.0448 53.7469 40.4149 53.1695 40.8015C52.5343 41.199 51.9672 41.3581 51.2191 41.2938C51.0872 41.2825 50.9553 41.2711 50.8194 41.2595C50.7143 41.2493 50.7143 41.2493 50.6069 41.239C50.3773 41.2172 50.1475 41.1985 49.9176 41.1798C48.7921 41.0818 47.7429 40.8723 46.6576 40.5556C46.1449 40.414 45.6652 40.375 45.1343 40.3786C45.0519 40.3788 44.9695 40.379 44.8846 40.3792C43.5695 40.3685 43.5695 40.3685 42.4075 40.8141C42.1719 40.8182 41.9362 40.8184 41.7006 40.8141C40.8688 39.3105 40.18 37.5665 40.6571 35.8207C40.7947 35.3999 40.9536 34.9898 41.1223 34.5806C42.0929 32.215 41.2133 29.5589 40.4627 27.2435C40.3877 26.9782 40.3877 26.9782 40.3877 26.6752Z" fill="#FCD6C5"/>
<path d="M22.7142 1.42726C22.7165 4.08539 22.7183 6.74352 22.7194 9.40165C22.7199 10.6358 22.7207 11.8699 22.7218 13.104C22.7228 14.1793 22.7235 15.2545 22.7237 16.3297C22.7238 16.8994 22.7241 17.4692 22.7249 18.0389C22.7255 18.5744 22.7258 19.11 22.7256 19.6456C22.7256 19.8427 22.7258 20.0399 22.7262 20.2371C22.7267 20.505 22.7266 20.773 22.7263 21.041C22.7268 21.1596 22.7268 21.1596 22.7272 21.2806C22.7257 21.8161 22.7257 21.8161 22.6132 21.9286C22.4074 21.9384 22.2013 21.9409 21.9953 21.9407C21.93 21.9408 21.8648 21.9409 21.7976 21.941C21.5774 21.9412 21.3572 21.9406 21.137 21.9401C20.9797 21.94 20.8225 21.94 20.6653 21.9401C20.2371 21.9401 19.809 21.9395 19.3808 21.9388C18.9339 21.9382 18.4869 21.9381 18.04 21.938C17.193 21.9377 16.346 21.9369 15.4991 21.9359C14.5351 21.9347 13.5711 21.9342 12.6071 21.9337C10.6236 21.9326 8.64004 21.9308 6.65649 21.9286C6.65649 21.462 6.65649 20.9954 6.65649 20.5147C11.4223 20.5147 16.1881 20.5147 21.0983 20.5147C21.0983 17.6152 21.0983 14.7158 21.0983 11.7284C16.3325 11.7284 11.5667 11.7284 6.65649 11.7284C6.65649 11.2285 6.65649 10.7286 6.65649 10.2135C11.4223 10.2135 16.1881 10.2135 21.0983 10.2135C21.0823 7.50633 21.0823 7.50633 21.0619 4.79915C21.0601 4.2753 21.0601 4.2753 21.0598 4.02999C21.0591 3.85882 21.0577 3.68766 21.0557 3.5165C21.0527 3.25706 21.0523 2.99773 21.0525 2.73828C21.051 2.66215 21.0496 2.58603 21.0481 2.50759C21.0508 2.15819 21.0719 1.96725 21.285 1.68459C21.7169 1.37381 22.2019 1.42441 22.7142 1.42726Z" fill="#BC96ED"/>
<path d="M36.2472 16.98C36.6479 17.1096 36.8252 17.226 37.0425 17.586C37.0934 17.667 37.1443 17.7479 37.1967 17.8314C37.25 17.917 37.3032 18.0027 37.3581 18.091C37.9049 18.9219 38.4301 19.7178 39.3779 20.1108C39.4826 21.1573 39.0343 21.9285 38.3928 22.7286C38.1084 23.0719 37.8361 23.3867 37.4816 23.6589C37.2203 23.8361 37.2203 23.8361 37.2066 24.1883C37.2875 24.775 37.4652 25.1096 37.9262 25.476C38.3485 25.7743 38.7971 25.9815 39.2769 26.1703C39.3397 27.4253 39.0138 28.6847 38.164 29.6372C37.3035 30.3636 36.3297 30.5852 35.2373 30.5129C34.3496 30.3601 33.6508 29.8132 33.0849 29.1306C32.4781 28.2534 32.3428 27.3158 32.4095 26.2713C32.5057 26.2296 32.6019 26.188 32.701 26.145C33.6316 25.7414 33.6316 25.7414 34.2522 24.9718C34.3825 24.6032 34.4704 24.2335 34.5303 23.8475C34.4595 23.8246 34.3887 23.8017 34.3157 23.7781C33.5467 23.427 33.1651 22.8159 32.7125 22.1306C32.6606 22.0615 32.6088 21.9924 32.5554 21.9211C32.1748 21.391 32.1483 20.9551 32.2075 20.3128C32.3317 20.2883 32.4559 20.2638 32.5839 20.2386C32.7488 20.2045 32.9137 20.1703 33.0786 20.136C33.1602 20.1202 33.2418 20.1043 33.3259 20.0879C33.852 19.9767 34.1985 19.8218 34.6313 19.5048C34.698 19.5048 34.7646 19.5048 34.8333 19.5048C34.8609 19.4465 34.8885 19.3882 34.9169 19.3281C35.0343 19.1027 35.1667 18.9045 35.313 18.6969C35.6817 18.1529 35.9646 17.5722 36.2472 16.98Z" fill="#FCD6C6"/>
<path d="M47.9622 6.98187C50.4617 6.98187 52.9613 6.98187 55.5365 6.98187C55.5365 9.54807 55.5365 12.1143 55.5365 14.7582C53.037 14.7582 50.5374 14.7582 47.9622 14.7582C47.9622 12.192 47.9622 9.62584 47.9622 6.98187Z" fill="#FCFBFD"/>
<path d="M29.6826 43.4399C30.3849 43.5651 31.0304 43.7877 31.6961 44.0395C32.3276 44.2767 32.9571 44.4977 33.6048 44.6867C33.8591 44.7636 34.1027 44.8571 34.3472 44.9611C34.4313 44.9945 34.5154 45.028 34.602 45.0625C34.7924 45.1401 34.9804 45.2234 35.1677 45.3082C36.1485 45.4412 37.2725 44.7987 38.1778 44.4506C39.3367 44.0053 40.4602 43.5946 41.7006 43.4399C41.7397 43.5422 41.7787 43.6445 41.819 43.75C41.8721 43.8865 41.9252 44.023 41.9784 44.1594C42.0039 44.2266 42.0294 44.2938 42.0557 44.363C42.5152 45.5347 43.2797 46.2163 44.3289 46.8538C44.6729 47.0645 44.9828 47.2629 45.2353 47.5805C45.2353 47.7139 45.2353 47.8472 45.2353 47.9845C44.7461 48.2291 44.0614 48.1596 43.5185 48.1865C43.427 48.1912 43.3356 48.1959 43.2414 48.2007C38.3465 48.4393 33.3441 48.4576 28.4707 47.8835C28.9126 44.2099 28.9126 44.2099 29.6826 43.4399Z" fill="#FBD6C6"/>
<path d="M17.1597 25.0594C17.2607 25.1604 17.2607 25.1604 17.2731 25.3352C17.273 25.4119 17.2729 25.4885 17.2729 25.5674C17.2731 25.6989 17.2731 25.6989 17.2733 25.8331C17.2727 25.9784 17.2727 25.9784 17.2722 26.1267C17.2722 26.2282 17.2722 26.3296 17.2722 26.4342C17.2721 26.7714 17.2714 27.1085 17.2706 27.4457C17.2704 27.6788 17.2702 27.9118 17.2701 28.1449C17.2698 28.7597 17.2688 29.3745 17.2676 29.9893C17.2664 30.7263 17.266 31.4632 17.2654 32.2002C17.2644 33.3209 17.2625 34.4417 17.2607 35.5625C20.2268 35.5625 23.193 35.5625 26.249 35.5625C25.6217 36.817 23.8241 37.5209 22.6133 38.0873C22.2328 38.2141 21.8948 38.2784 21.5024 38.1883C21.3026 38.0302 21.1443 37.8549 20.9741 37.6656C20.5499 37.2283 20.0792 37.0551 19.4762 37.0332C18.8878 37.0603 18.4696 37.1868 18.0371 37.6076C17.8175 37.9375 17.8175 37.9375 17.6647 38.5923C17.0981 38.5923 16.5315 38.5923 15.9478 38.5923C16.3518 38.2893 16.3518 38.2893 16.5427 38.189C16.7819 38.0424 16.9061 37.9214 17.0587 37.6833C17.1669 37.0978 17.1552 36.5169 17.1499 35.9231C17.1508 35.7496 17.1521 35.5761 17.1536 35.4026C17.1569 34.9474 17.1559 34.4922 17.1541 34.0369C17.153 33.5718 17.1558 33.1067 17.1583 32.6416C17.1627 31.7301 17.1626 30.8185 17.1597 29.907C17.0621 29.9484 16.9644 29.9898 16.8638 30.0324C15.7801 30.4843 14.8243 30.7483 13.6412 30.7382C13.5514 30.7381 13.4617 30.7381 13.3692 30.738C13.1816 30.7377 12.9939 30.7369 12.8063 30.7357C12.5187 30.7338 12.2311 30.7336 11.9435 30.7336C11.7603 30.7331 11.5772 30.7326 11.3941 30.7319C11.2654 30.7317 11.2654 30.7317 11.134 30.7315C10.7951 30.7288 10.515 30.7218 10.1913 30.6139C10.1913 29.914 10.1913 29.2142 10.1913 28.4931C10.5428 28.5019 10.5428 28.5019 10.9014 28.5108C12.6699 28.545 14.3096 28.5022 16.0321 28.0438C16.3047 27.9744 16.5785 27.9271 16.8567 27.8871C16.8567 27.8205 16.8567 27.7538 16.8567 27.6851C16.9567 27.6851 17.0567 27.6851 17.1597 27.6851C17.1097 26.7853 17.1097 26.7853 17.0587 25.8673C16.9046 25.9423 16.7504 26.0173 16.5916 26.0945C14.614 26.9064 12.062 27.1137 9.9893 26.5742C9.70171 26.4362 9.70171 26.4362 9.47803 26.2839C8.57351 25.7493 7.47912 25.6278 6.45459 25.4633C6.6478 24.951 7.02504 24.8239 7.49843 24.6002C10.2574 23.506 14.6613 23.2238 17.1597 25.0594Z" fill="#BF96EB"/>
<path d="M5.13837 25.2495C5.74038 25.2389 6.27123 25.2508 6.8514 25.4086C7.06241 25.4639 7.27282 25.5066 7.48721 25.5466C8.40019 25.723 9.16036 25.9584 9.96782 26.4239C11.6925 27.2234 14.5396 26.7242 16.2767 26.132C16.5745 26.0191 16.8679 25.8944 17.1595 25.7663C17.1595 26.3995 17.1595 27.0328 17.1595 27.6852C17.0596 27.6852 16.9596 27.6852 16.8566 27.6852C16.8566 27.7518 16.8566 27.8185 16.8566 27.8871C15.2855 28.4387 13.7619 28.6325 12.1036 28.6256C11.9958 28.6253 11.9958 28.6253 11.8858 28.6249C10.5955 28.6169 10.5955 28.6169 10.1911 28.4931C10.1911 28.566 10.1911 28.6389 10.1911 28.714C10.0575 29.0899 9.88833 29.1883 9.54847 29.3823C9.01026 29.6263 8.44176 29.7705 7.8683 29.907C7.80156 29.9251 7.73481 29.9432 7.66605 29.9619C6.85158 30.1594 6.02682 30.1466 5.19372 30.1464C4.9362 30.1468 4.67886 30.1505 4.42136 30.1543C3.1033 30.1634 1.25011 30.1031 0.192926 29.2C0.0578587 28.6706 0.0466827 28.134 0.0288142 27.5905C0.018074 27.4426 0.018074 27.4426 0.00711677 27.2917C-0.0109145 26.5918 -0.0109145 26.5918 0.261026 26.2785C0.811169 25.8818 1.41696 25.7153 2.0739 25.5833C2.17135 25.5625 2.2688 25.5418 2.3692 25.5205C3.29642 25.3317 4.19341 25.2774 5.13837 25.2495Z" fill="#7D48C5"/>
<path d="M23.7242 40.7131C23.7242 40.7797 23.7242 40.8464 23.7242 40.9151C23.9148 40.9465 23.9148 40.9465 24.1092 40.9786C25.7467 41.2662 27.0782 41.8531 28.5272 42.6453C28.9742 42.8879 29.4279 43.1153 29.8847 43.3389C29.8408 43.3878 29.7969 43.4368 29.7517 43.4872C29.5186 43.8378 29.4087 44.2009 29.285 44.6013C29.2458 44.7261 29.2458 44.7261 29.2059 44.8535C28.963 45.6542 28.7993 46.4652 28.6487 47.2874C28.5718 47.6815 28.5718 47.6815 28.4708 47.8835C28.6708 47.9335 28.6708 47.9335 28.8748 47.9845C25.9185 48.0686 22.329 47.6187 20.0573 45.5398C19.4871 44.9353 19.3469 44.2745 19.3602 43.4663C19.437 42.6426 20.0282 41.9289 20.6372 41.4102C21.1622 41.0264 21.7157 40.9603 22.3482 40.8772C22.4584 40.8607 22.5687 40.8441 22.6823 40.8271C23.4555 40.7131 23.4555 40.7131 23.7242 40.7131Z" fill="#5C29A2"/>
<path d="M51.5346 41.8429C52.1498 42.4429 52.4332 42.9749 52.4688 43.8438C52.438 44.6584 52.1801 45.1453 51.6482 45.7437C50.5008 46.7477 49.2132 47.2078 47.76 47.5805C47.581 47.6274 47.581 47.6274 47.3983 47.6752C46.7127 47.8443 46.041 47.9435 45.3362 47.9845C45.2904 47.8991 45.2446 47.8137 45.1974 47.7257C44.8812 47.2492 44.3907 46.9824 43.9223 46.6716C42.8157 45.8956 42.099 45.1366 41.7826 43.7807C41.7555 43.6682 41.7284 43.5557 41.7005 43.4399C41.6339 43.4065 41.5672 43.3732 41.4985 43.3389C41.7699 43.2104 42.0413 43.082 42.3128 42.9538C42.3887 42.9178 42.4647 42.8818 42.543 42.8447C42.999 42.6295 43.4574 42.4236 43.9223 42.2279C43.9871 42.2005 44.0519 42.1731 44.1186 42.1448C46.3839 41.1879 49.3356 40.0838 51.5346 41.8429Z" fill="#5B28A1"/>
<path d="M47.9622 15.8691C50.4617 15.8691 52.9613 15.8691 55.5365 15.8691C55.5365 16.2024 55.5365 16.5357 55.5365 16.8791C55.3033 16.9124 55.07 16.9457 54.8296 16.9801C54.6896 17.4378 54.7781 17.7044 54.9558 18.1415C55.0001 18.2529 55.0444 18.3643 55.09 18.4791C55.2439 18.8374 55.2439 18.8374 55.5365 19.3029C55.5365 20.436 55.5365 21.5691 55.5365 22.7366C53.037 22.7366 50.5374 22.7366 47.9622 22.7366C47.9622 20.4703 47.9622 18.2041 47.9622 15.8691Z" fill="#FBFAFD"/>
<path d="M35.5491 0C35.742 0.013413 35.742 0.013413 35.944 0.114405C35.9444 0.236136 35.9449 0.357866 35.9453 0.483286C35.9475 0.937118 35.953 1.39086 35.9594 1.84465C35.9618 2.04064 35.9632 2.23665 35.9638 2.43265C35.9647 2.71527 35.9689 2.99769 35.9736 3.28026C35.9732 3.36718 35.9728 3.45411 35.9724 3.54366C35.9853 4.08157 36.0776 4.39194 36.4322 4.80219C36.568 4.98651 36.5987 5.14539 36.651 5.36598C36.8129 5.47472 36.8129 5.47472 37.0194 5.53522C37.0955 5.56215 37.1715 5.58908 37.2498 5.61683C37.3313 5.64444 37.4128 5.67206 37.4968 5.70051C39.0518 6.26804 40.4871 7.20358 41.2966 8.69871C41.3299 8.86534 41.3632 9.03198 41.3976 9.20366C37.3983 9.20366 33.399 9.20366 29.2786 9.20366C29.4673 8.07147 30.0984 7.3638 30.9954 6.67887C31.7513 6.14117 32.532 5.83296 33.4226 5.59866C33.6386 5.53625 33.829 5.47619 34.0252 5.36598C34.157 5.08149 34.157 5.08149 34.2272 4.76003C34.3107 4.67277 34.3943 4.58551 34.4804 4.49561C34.8217 4.09905 34.8042 3.71993 34.8 3.21477C34.8019 3.08192 34.8019 3.08192 34.8039 2.94639C34.8075 2.66512 34.8078 2.38397 34.8079 2.10268C34.81 1.81963 34.8129 1.5366 34.8162 1.25357C34.818 1.07779 34.819 0.902002 34.8192 0.726216C34.8227 0.015172 34.8321 0.00260258 35.5491 0Z" fill="#56279C"/>
<path d="M55.1325 32.4318C57.832 32.4318 60.5315 32.4318 63.3128 32.4318C63.5461 33.2316 63.7794 34.0315 64.0198 34.8556C64.101 35.1055 64.1822 35.3555 64.2659 35.613C64.4155 36.0885 64.4627 36.4798 64.4237 36.9764C64.1476 36.7299 64.0106 36.5521 63.8561 36.2091C63.7562 36.0178 63.7562 36.0178 63.6158 35.8655C63.3018 35.792 63.0903 35.7706 62.7759 35.7776C62.6914 35.7766 62.607 35.7757 62.52 35.7748C62.2411 35.7725 61.9624 35.7752 61.6835 35.7779C61.4899 35.7772 61.2962 35.7762 61.1025 35.7749C60.5929 35.7722 60.0833 35.7736 59.5737 35.776C58.9537 35.7782 58.3337 35.7758 57.7137 35.7738C57.2316 35.7723 56.7494 35.7716 56.2672 35.7732C56.1788 35.7733 56.0903 35.7735 55.9991 35.7736C55.8335 35.7739 55.6679 35.7745 55.5023 35.7756C54.9532 35.7759 54.9532 35.7759 54.7285 35.6635C54.7285 34.7546 54.7285 34.7546 55.1325 32.4318Z" fill="#EADEFB"/>
<path d="M54.6275 35.2595C54.6608 35.3928 54.6942 35.5261 54.7285 35.6635C54.8383 35.6623 54.948 35.6611 55.0611 35.6598C56.0968 35.6492 57.1324 35.6445 58.1681 35.6454C58.7006 35.6457 59.2329 35.644 59.7654 35.6375C60.2795 35.6314 60.7933 35.6306 61.3075 35.6336C61.5034 35.6338 61.6993 35.6321 61.8951 35.6283C63.4359 35.6008 63.4359 35.6008 63.8972 36.0205C64.0777 36.3011 64.2122 36.5613 64.3227 36.8754C64.3894 36.8421 64.456 36.8087 64.5247 36.7744C64.5716 36.9067 64.6177 37.0393 64.6636 37.1721C64.6893 37.2459 64.7151 37.3197 64.7417 37.3957C64.8592 37.7888 64.9407 38.1918 65.0296 38.5922C61.497 38.5922 57.9643 38.5922 54.3245 38.5922C54.2005 38.2203 54.2488 37.995 54.3056 37.6076C54.3249 37.4723 54.3443 37.337 54.3636 37.2016C54.3738 37.1318 54.384 37.0619 54.3945 36.9899C54.4457 36.6344 54.4922 36.2784 54.5391 35.9223C54.5686 35.7014 54.598 35.4804 54.6275 35.2595Z" fill="#B389E6"/>
<path d="M17.1597 25.0594C17.2607 25.1604 17.2607 25.1604 17.2722 25.4036C17.2714 25.5615 17.2714 25.5615 17.2706 25.7225C17.2701 25.8929 17.2701 25.8929 17.2696 26.0667C17.2683 26.2461 17.2683 26.2461 17.267 26.4291C17.2666 26.549 17.2661 26.669 17.2656 26.7926C17.2644 27.0901 17.2628 27.3876 17.2607 27.6851C17.2274 27.6851 17.1941 27.6851 17.1597 27.6851C17.1097 26.7853 17.1097 26.7853 17.0587 25.8673C16.9046 25.9423 16.7504 26.0173 16.5916 26.0945C14.614 26.9064 12.062 27.1137 9.9893 26.5742C9.70171 26.4362 9.70171 26.4362 9.47803 26.2839C8.57351 25.7493 7.47912 25.6278 6.45459 25.4633C6.6478 24.951 7.02504 24.8239 7.49843 24.6002C10.2574 23.506 14.6613 23.2238 17.1597 25.0594Z" fill="#AE82E6"/>
<path d="M63.4139 32.4318C63.8704 32.4293 64.3269 32.4275 64.7835 32.4262C64.9389 32.4257 65.0942 32.425 65.2496 32.4242C65.4727 32.423 65.6958 32.4224 65.9189 32.4219C65.9886 32.4214 66.0582 32.4209 66.13 32.4204C66.6226 32.4203 66.6226 32.4203 66.8476 32.5328C66.9261 32.8208 66.9932 33.1059 67.0559 33.3975C67.2133 34.1024 67.3897 34.7989 67.5912 35.4923C67.612 35.5643 67.6328 35.6362 67.6543 35.7103C67.7383 36.0002 67.8226 36.2901 67.9094 36.5792C67.9708 36.7838 68.0306 36.9887 68.0902 37.1938C68.1256 37.3125 68.161 37.4312 68.1975 37.5536C68.2655 37.9063 68.2562 38.1462 68.1605 38.4913C67.7328 38.7051 67.1735 38.6152 66.703 38.6166C66.4949 38.6175 66.2868 38.6207 66.0787 38.6239C65.8828 38.6246 65.8828 38.6246 65.683 38.6254C65.5627 38.6264 65.4423 38.6273 65.3183 38.6283C65.2231 38.6164 65.1278 38.6045 65.0297 38.5923C64.8271 38.2884 64.765 38.091 64.6826 37.7402C64.6598 37.6445 64.637 37.5488 64.6135 37.4502C64.5696 37.2657 64.5696 37.2657 64.5248 37.0774C64.3228 36.2419 64.0981 35.4152 63.8557 34.5905C63.8084 34.4278 63.8084 34.4278 63.7602 34.2619C63.6173 33.7393 63.6173 33.7393 63.4139 33.2397C63.4003 32.9698 63.4095 32.7022 63.4139 32.4318Z" fill="#5B2AA0"/>
<path d="M10.0903 27.1802C10.1248 27.6414 10.1488 28.0987 10.1384 28.5613C10.137 28.6367 10.1355 28.7122 10.134 28.7899C10.0784 29.0548 9.97568 29.1617 9.77471 29.3389C9.55221 29.4284 9.55221 29.4284 9.28237 29.503C9.11756 29.5571 9.11756 29.5571 8.94942 29.6123C8.59068 29.7231 8.23377 29.82 7.86849 29.907C7.80175 29.9251 7.735 29.9432 7.66624 29.9619C6.85177 30.1594 6.02701 30.1465 5.19391 30.1464C4.93639 30.1468 4.67904 30.1505 4.42155 30.1543C2.90878 30.1647 1.5252 29.9612 0.193115 29.2C0.193115 28.6001 0.193115 28.0002 0.193115 27.3822C0.566269 27.5065 0.880139 27.6193 1.22828 27.7798C3.74109 28.7738 7.12104 28.5342 9.58535 27.4832C10.0148 27.1802 10.0148 27.1802 10.0903 27.1802Z" fill="#552698"/>
<path d="M52.0019 32.3308C53.0017 32.3308 54.0015 32.3308 55.0316 32.3308C55.0316 33.5788 55.0316 33.5788 54.9504 34.0094C54.9331 34.1049 54.9159 34.2005 54.8982 34.2989C54.8705 34.4464 54.8705 34.4464 54.8423 34.5968C54.684 35.4812 54.563 36.3588 54.4948 37.2547C54.4363 37.9625 54.4363 37.9625 54.2237 38.2893C54.1549 38.181 54.0862 38.0727 54.0154 37.9611C53.7377 37.5776 53.4649 37.3301 53.0118 37.1784C52.4049 37.092 51.8796 37.2267 51.2949 37.3804C51.3136 36.2392 51.4653 35.1278 51.6484 34.0035C51.6656 33.897 51.6656 33.897 51.6831 33.7884C51.8807 32.5732 51.8807 32.5732 52.0019 32.3308Z" fill="#6431A9"/>
<path d="M16.8566 27.6852C16.9566 27.6852 17.0566 27.6852 17.1596 27.6852C17.1596 28.4184 17.1596 29.1516 17.1596 29.907C16.9305 30.0028 16.7013 30.0986 16.4653 30.1974C16.3954 30.2271 16.3255 30.2569 16.2535 30.2876C15.4021 30.6355 14.5557 30.7461 13.6411 30.7382C13.5513 30.7382 13.4615 30.7381 13.3691 30.7381C13.1814 30.7378 12.9938 30.737 12.8062 30.7357C12.5185 30.7339 12.231 30.7336 11.9433 30.7337C11.7602 30.7332 11.5771 30.7326 11.394 30.7319C11.3081 30.7318 11.2223 30.7317 11.1339 30.7316C10.795 30.7288 10.5148 30.7218 10.1912 30.6139C10.1912 29.9141 10.1912 29.2142 10.1912 28.4931C10.5427 28.5019 10.5427 28.5019 10.9013 28.5109C12.6698 28.545 14.3095 28.5023 16.032 28.0438C16.3046 27.9744 16.5784 27.9271 16.8566 27.8872C16.8566 27.8205 16.8566 27.7539 16.8566 27.6852Z" fill="#AC7FE4"/>
<path d="M17.1597 25.7663C17.1597 26.3995 17.1597 27.0327 17.1597 27.6851C17.0597 27.6851 16.9597 27.6851 16.8567 27.6851C16.8567 27.7518 16.8567 27.8184 16.8567 27.8871C15.2857 28.4387 13.762 28.6325 12.1038 28.6256C12.0319 28.6254 11.96 28.6251 11.8859 28.6248C10.5956 28.6169 10.5956 28.6169 10.1912 28.4931C10.1851 28.3969 10.179 28.3007 10.1727 28.2015C10.1642 28.0749 10.1558 27.9482 10.1471 27.8177C10.1389 27.6923 10.1307 27.567 10.1222 27.4378C10.0958 27.141 10.0505 26.865 9.98926 26.5742C10.0888 26.5846 10.0888 26.5846 10.1903 26.5952C12.698 26.842 14.8905 25.7663 17.1597 25.7663Z" fill="#8953CD"/>
<path d="M29.2786 9.30463C33.2778 9.30463 37.2771 9.30463 41.3976 9.30463C41.3976 9.33795 41.3976 9.37128 41.3976 9.40562C40.2311 9.40562 39.0647 9.40562 37.8629 9.40562C37.8295 9.70556 37.7962 10.0055 37.7619 10.3145C37.544 11.1011 37.1362 11.6377 36.4869 12.1324C35.7359 12.3549 34.8678 12.3332 34.1333 12.0499C33.5811 11.7343 33.1953 11.2805 32.9143 10.7185C32.9143 10.2853 32.9143 9.852 32.9143 9.40562C31.7145 9.40562 30.5147 9.40562 29.2786 9.40562C29.2786 9.37229 29.2786 9.33896 29.2786 9.30463Z" fill="#FBFAFD"/>
<path d="M56.632 13.0354C57.7442 13.484 58.745 14.0159 59.3091 15.1294C59.5472 15.7373 59.6489 16.3295 59.6772 16.98C59.7105 16.7801 59.7438 16.5801 59.7781 16.3741C59.8115 16.3741 59.8448 16.3741 59.8791 16.3741C60.0002 16.9244 59.9714 17.2044 59.6772 17.687C59.6105 17.587 59.5438 17.487 59.4752 17.384C59.1677 17.3359 59.1677 17.3359 58.8124 17.3335C57.8779 17.282 57.2238 17.1375 56.5314 16.4837C56.2013 16.1119 55.9638 15.7046 55.7385 15.2632C55.704 15.199 55.6695 15.1348 55.6339 15.0687C55.3388 14.4276 55.4093 13.7318 55.4355 13.0413C55.8464 12.8359 56.2107 12.8961 56.632 13.0354Z" fill="#6633AB"/>
<path d="M45.5383 35.6635C47.4713 35.6635 49.4043 35.6635 51.3959 35.6635C51.3959 37.4814 51.3959 37.4814 51.0045 37.9358C50.8681 38.0239 50.7295 38.1087 50.5879 38.1883C50.5213 38.255 50.4546 38.3216 50.3859 38.3903C49.0234 38.5669 47.5986 37.525 46.5411 36.7488C45.8005 36.1626 45.8005 36.1626 45.5383 35.8655C45.5383 35.7988 45.5383 35.7322 45.5383 35.6635Z" fill="#C39DED"/>
<path d="M41.2967 34.1486C41.3746 34.4386 41.3973 34.6575 41.3724 34.9566C41.3661 35.5939 41.6332 36.1077 41.9026 36.6734C41.9737 36.8292 41.9737 36.8292 42.0462 36.9882C42.8478 38.6818 43.9982 39.4301 45.6393 40.2081C45.6393 40.2415 45.6393 40.2748 45.6393 40.3091C45.5803 40.3142 45.5214 40.3192 45.4606 40.3245C45.1877 40.3482 44.9149 40.3728 44.642 40.3975C44.5493 40.4054 44.4566 40.4134 44.3611 40.4216C43.3171 40.4482 43.3171 40.4482 42.4076 40.8141C42.172 40.8182 41.9362 40.8184 41.7006 40.8141C40.8657 39.3049 40.1808 37.5605 40.6604 35.8093C40.8441 35.2439 41.0637 34.6953 41.2967 34.1486Z" fill="#C5A2EE"/>
<path d="M30.5915 34.6536C31.2709 35.333 31.3542 36.3504 31.3616 37.2604C31.3491 38.539 31.0471 39.613 30.3895 40.7131C30.1854 40.7014 29.9813 40.6885 29.7773 40.6752C29.6636 40.6682 29.55 40.6611 29.4329 40.6539C29.0766 40.6121 29.0766 40.6121 28.7547 40.5142C28.2284 40.3719 27.7065 40.3376 27.1641 40.2965C27.0565 40.2878 26.9489 40.279 26.838 40.27C26.5744 40.2488 26.3107 40.2281 26.0469 40.2081C26.3616 39.9626 26.641 39.8171 27.0189 39.6842C27.116 39.6495 27.2132 39.6147 27.3132 39.5789C27.5618 39.5012 27.5618 39.5012 27.7637 39.5012C27.7637 39.4345 27.7637 39.3679 27.7637 39.2992C27.9302 39.1878 28.1017 39.0839 28.275 38.9836C29.2647 38.3717 29.9263 37.5046 30.257 36.3894C30.2786 36.3185 30.3002 36.2477 30.3225 36.1748C30.4724 35.6676 30.5631 35.1831 30.5915 34.6536Z" fill="#C8A7EF"/>
<path d="M56.5464 20.5148C56.7963 20.6148 56.7963 20.6148 57.0513 20.7168C57.664 20.9444 58.2435 21.1277 58.8944 21.2028C59.5124 21.2928 59.8886 21.5502 60.2831 22.0296C60.5532 22.4287 60.4851 22.589 60.4851 23.1406C59.1853 23.1739 57.8855 23.2072 56.5464 23.2415C56.5464 22.3417 56.5464 21.4419 56.5464 20.5148Z" fill="#FBFAFC"/>
<path d="M63.4138 16.0711C63.4471 16.0711 63.4804 16.0711 63.5148 16.0711C63.6706 17.757 63.6706 17.757 63.3148 18.289C63.1379 18.4458 62.9575 18.5988 62.7743 18.7482C62.2678 19.2213 62.0464 19.8801 61.7979 20.5147C61.7541 20.6266 61.7541 20.6266 61.7094 20.7406C61.5306 21.2017 61.359 21.6651 61.192 22.1306C60.99 22.0296 60.99 22.0296 60.904 21.8229C60.6962 21.0966 60.5329 20.3574 60.687 19.6058C60.9514 19.2205 61.3048 19.0052 61.7072 18.7801C62.7279 18.2067 63.0398 17.127 63.4138 16.0711Z" fill="#F7F4FB"/>
<path d="M12.3121 24.6301C12.4063 24.6294 12.5006 24.6286 12.5977 24.6278C13.3158 24.6298 14.0244 24.6524 14.6349 25.0594C14.6016 25.1927 14.5682 25.326 14.5339 25.4633C13.2208 25.8659 11.6853 25.9932 10.3609 25.569C10.1439 25.4338 10.083 25.2931 9.98926 25.0594C10.6784 24.5999 11.5085 24.6235 12.3121 24.6301Z" fill="#844ECA"/>
<path d="M4.74384 26.3407C4.8448 26.3391 4.94576 26.3375 5.04978 26.3358C5.73524 26.3354 6.31557 26.4403 6.95935 26.6753C6.95935 26.8086 6.95935 26.9419 6.95935 27.0792C6.37171 27.3818 5.89803 27.426 5.24249 27.4138C5.15527 27.4141 5.06804 27.4144 4.97818 27.4148C4.40055 27.4099 3.79199 27.4036 3.32996 27.0161C3.27684 26.9474 3.27684 26.9474 3.22266 26.8773C3.45511 26.1799 4.13048 26.3388 4.74384 26.3407Z" fill="#522795"/>
<path d="M56.4453 16.4751C56.7647 16.6284 57.065 16.8045 57.3665 16.9899C57.9212 17.2563 58.5621 17.2068 59.1638 17.225C59.4751 17.283 59.4751 17.283 59.6151 17.4467C59.6947 17.7555 59.7211 18.0505 59.7402 18.3687C59.7477 18.4869 59.7553 18.6051 59.763 18.7269C59.768 18.817 59.7729 18.9071 59.778 18.9999C59.6312 18.8687 59.6312 18.8687 59.4814 18.7348C58.5417 17.9421 57.6047 17.5574 56.4453 17.182C56.4453 16.9487 56.4453 16.7155 56.4453 16.4751Z" fill="#F6F1FA"/>
<path d="M62.2019 6.88086C62.7846 7.0351 63.1135 7.46907 63.4208 7.96351C63.5436 8.26429 63.539 8.50814 63.5377 8.83294C63.5377 8.96231 63.5377 9.09169 63.5377 9.22498C63.5366 9.36568 63.5356 9.50638 63.5345 9.64709C63.5341 9.79142 63.5339 9.93576 63.5337 10.0801C63.5329 10.4593 63.5309 10.8385 63.5287 11.2177C63.5266 11.6049 63.5257 11.9922 63.5247 12.3794C63.5225 13.1387 63.5191 13.8979 63.5148 14.6572C63.331 14.2922 63.1691 13.9227 63.0098 13.5463C63.0765 13.5463 63.1431 13.5463 63.2118 13.5463C63.2127 12.7538 63.209 11.9614 63.202 11.1688C63.1998 10.8993 63.1994 10.63 63.1997 10.3604C63.2 9.97252 63.1964 9.58483 63.1921 9.19696C63.193 9.0769 63.1939 8.95685 63.1949 8.83315C63.1836 8.18634 63.14 7.78258 62.6642 7.32215C62.6116 7.2765 62.559 7.23086 62.5049 7.18383C62.4034 7.08333 62.3023 6.98247 62.2019 6.88086Z" fill="#D2BBF3"/>
<path d="M63.6159 21.7266C63.5826 22.2265 63.5493 22.7264 63.515 23.2415C62.9484 23.2415 62.3818 23.2415 61.7981 23.2415C62.0268 22.5553 62.0268 22.5553 62.4356 22.2063C62.5123 22.1392 62.589 22.072 62.668 22.0028C63.2795 21.5584 63.2795 21.5584 63.6159 21.7266Z" fill="#EFE6F9"/>
<path d="M59.0713 14.7582C59.5712 14.7916 60.0711 14.8249 60.5862 14.8592C60.4924 15.0342 60.3987 15.2092 60.3021 15.3894C59.9921 16.0051 59.8134 16.6095 59.6772 17.283C59.6439 17.283 59.6106 17.283 59.5762 17.283C59.5723 17.162 59.5723 17.162 59.5684 17.0384C59.5256 16.2109 59.3612 15.5343 59.0713 14.7582Z" fill="#E4D5F8"/>
<path d="M63.6159 34.0476C63.9172 34.3912 64.0165 34.7268 64.1335 35.1648C64.167 35.2889 64.2006 35.413 64.2352 35.5408C64.2641 35.6479 64.293 35.7551 64.3228 35.8655C64.3561 35.9654 64.3895 36.0654 64.4238 36.1684C64.4367 36.4385 64.4282 36.7058 64.4238 36.9764C63.8941 36.5251 63.5469 35.9937 63.4794 35.297C63.4734 34.3325 63.4734 34.3325 63.6159 34.0476Z" fill="#F3EEF9"/>
<path d="M59.1722 29.705C59.3055 29.7717 59.4388 29.8383 59.5762 29.907C59.5762 29.9403 59.5762 29.9737 59.5762 30.008C56.4101 30.008 53.244 30.008 49.9819 30.008C49.9819 29.9747 49.9819 29.9413 49.9819 29.907C53.0147 29.907 56.0475 29.907 59.1722 29.907C59.1722 29.8403 59.1722 29.7737 59.1722 29.705Z" fill="#E0CDF6"/>
<path d="M63.4138 16.0711C63.4472 16.0711 63.4805 16.0711 63.5148 16.0711C63.5312 16.3806 63.5432 16.6892 63.5527 16.999C63.5578 17.0863 63.5628 17.1735 63.5681 17.2635C63.5828 17.9037 63.5828 17.9037 63.3772 18.1646C63.2095 18.3044 63.2095 18.3044 62.9089 18.4949C62.8267 17.5836 63.0448 16.9001 63.4138 16.0711Z" fill="#D4BCF2"/>
<path d="M63.414 21.6257C63.4806 21.659 63.5473 21.6923 63.6159 21.7267C63.5826 22.2266 63.5493 22.7265 63.515 23.2415C62.9484 23.2415 62.3818 23.2415 61.7981 23.2415C61.8314 23.1749 61.8648 23.1082 61.8991 23.0396C62.299 23.0396 62.6989 23.0396 63.111 23.0396C63.111 22.673 63.111 22.3064 63.111 21.9286C63.0443 21.8953 62.9777 21.862 62.909 21.8277C63.1489 21.7204 63.1489 21.7204 63.414 21.6257Z" fill="#D0B8F1"/>
<path d="M63.3129 32.6337C63.3462 32.6337 63.3796 32.6337 63.4139 32.6337C63.7582 33.965 63.7582 33.965 63.6159 34.2496C63.5927 34.4722 63.5744 34.6954 63.5591 34.9187C63.5506 35.0387 63.5421 35.1587 63.5334 35.2824C63.5273 35.3748 63.5212 35.4673 63.5149 35.5625C63.4482 35.5625 63.3816 35.5625 63.3129 35.5625C63.293 35.1501 63.2744 34.7378 63.2561 34.3253C63.2504 34.2083 63.2448 34.0913 63.2389 33.9707C63.2341 33.8581 63.2292 33.7455 63.2241 33.6294C63.2194 33.5258 63.2146 33.4221 63.2097 33.3153C63.2117 33.0661 63.2394 32.8704 63.3129 32.6337Z" fill="#DECCF3"/>
<path d="M30.5915 34.6536C30.8924 34.9544 30.9955 35.2396 30.9955 35.6635C30.8622 35.6635 30.7289 35.6635 30.5915 35.6635C30.5791 35.7406 30.5666 35.8176 30.5537 35.897C30.4906 36.1684 30.4906 36.1684 30.2886 36.4714C30.3769 35.7897 30.3769 35.7897 30.4906 35.5625C30.5132 35.4073 30.5318 35.2515 30.5474 35.0954C30.5558 35.0129 30.5643 34.9303 30.573 34.8453C30.5791 34.782 30.5852 34.7188 30.5915 34.6536Z" fill="#DDBEE5"/>
<path d="M63.4138 16.0711C63.4471 16.0711 63.4805 16.0711 63.5148 16.0711C63.5148 16.7043 63.5148 17.3375 63.5148 17.9899C63.4482 17.9566 63.3815 17.9233 63.3128 17.889C63.3128 17.6557 63.3128 17.4224 63.3128 17.182C63.2128 17.232 63.2128 17.232 63.1108 17.283C63.1621 16.847 63.2317 16.4717 63.4138 16.0711Z" fill="#CDB4EF"/>
<path d="M49.9819 41.1171C50.1924 41.1286 50.4028 41.1415 50.6131 41.1549C50.7303 41.162 50.8475 41.169 50.9682 41.1762C51.2652 41.2143 51.4463 41.2663 51.6988 41.42C51.5988 41.42 51.4988 41.42 51.3958 41.42C51.3958 41.52 51.3958 41.62 51.3958 41.723C51.3312 41.6959 51.2667 41.6689 51.2001 41.641C50.7988 41.4853 50.3911 41.3518 49.9819 41.2181C49.9819 41.1847 49.9819 41.1514 49.9819 41.1171Z" fill="#D8B5DD"/>
<path d="M41.2965 34.1486C41.3911 34.4673 41.4082 34.7511 41.4038 35.0828C41.4029 35.1729 41.402 35.263 41.4011 35.3558C41.3999 35.424 41.3987 35.4922 41.3975 35.5625C41.2309 35.5625 41.0643 35.5625 40.8926 35.5625C40.9564 35.0522 41.1082 34.6237 41.2965 34.1486Z" fill="#DEC4E6"/>
<path d="M59.5762 15.7681C59.6762 15.8015 59.7761 15.8348 59.8791 15.8691C59.8676 16.048 59.8547 16.2269 59.8413 16.4056C59.8307 16.555 59.8307 16.555 59.82 16.7074C59.7782 16.98 59.7782 16.98 59.5762 17.283C59.5762 16.7831 59.5762 16.2832 59.5762 15.7681Z" fill="#F3E8FA"/>
<path d="M36.6511 45.8636C37.3202 45.9394 37.3202 45.9394 37.661 46.1666C37.661 46.2333 37.661 46.2999 37.661 46.3686C37.2855 46.3174 36.9809 46.2559 36.6511 46.0656C36.6511 45.999 36.6511 45.9323 36.6511 45.8636Z" fill="#FACBB3"/>
<path d="M59.7781 16.3741C59.8115 16.3741 59.8448 16.3741 59.8791 16.3741C60.0002 16.9244 59.9714 17.2044 59.6772 17.687C59.6105 17.587 59.5438 17.487 59.4752 17.384C59.2163 17.3103 59.2163 17.3103 58.9702 17.283C58.9702 17.2497 58.9702 17.2164 58.9702 17.182C59.2035 17.1154 59.4368 17.0487 59.6772 16.98C59.7105 16.7801 59.7438 16.5801 59.7781 16.3741Z" fill="#9B72C8"/>
<path d="M29.6825 27.2812C29.5715 27.6142 29.486 27.6899 29.2218 27.9061C29.157 27.9596 29.0923 28.0131 29.0257 28.0682C28.9758 28.1084 28.926 28.1487 28.8746 28.1901C28.8079 28.1568 28.7413 28.1235 28.6726 28.0891C29.284 27.2812 29.284 27.2812 29.6825 27.2812Z" fill="#EBC7CB"/>
<path d="M37.762 23.3425C37.8287 23.3759 37.8953 23.4092 37.964 23.4435C37.8172 23.5779 37.8172 23.5779 37.6674 23.7149C37.3983 23.9814 37.28 24.1649 37.2571 24.5544C37.2238 24.5544 37.1904 24.5544 37.1561 24.5544C37.1182 24.2325 37.1182 24.2325 37.1561 23.8475C37.3391 23.6313 37.5255 23.5051 37.762 23.3425Z" fill="#6C39A8"/>
<path d="M16.7115 38.3145C17.0587 38.3903 17.0587 38.3903 17.3616 38.4912C17.0824 38.6308 16.852 38.6019 16.5411 38.5986C16.4304 38.5976 16.3198 38.5967 16.2058 38.5958C16.078 38.594 16.078 38.594 15.9478 38.5922C16.3067 38.2861 16.3067 38.2861 16.7115 38.3145Z" fill="#B085E1"/>
<path d="M63.313 32.6337C63.3463 32.6337 63.3796 32.6337 63.414 32.6337C63.4532 32.8144 63.4908 32.9954 63.5276 33.1766C63.5487 33.2773 63.5698 33.3781 63.5915 33.4819C63.5996 33.5686 63.6076 33.6553 63.6159 33.7446C63.5493 33.8113 63.4826 33.8779 63.414 33.9466C63.377 33.8038 63.3416 33.6607 63.3067 33.5174C63.2867 33.4377 63.2668 33.3581 63.2463 33.276C63.2105 33.0272 63.2353 32.8704 63.313 32.6337Z" fill="#D7C4EF"/>
<path d="M47.3561 40.7131C47.5928 40.7389 47.8286 40.7729 48.0631 40.8141C48.0964 40.8807 48.1297 40.9474 48.1641 41.016C47.7141 41.066 47.7141 41.066 47.2551 41.117C47.2885 40.9837 47.3218 40.8504 47.3561 40.7131Z" fill="#512C7E"/>
<path d="M32.5104 15.7681C32.5437 15.8681 32.5771 15.9681 32.6114 16.0711C32.4448 16.2377 32.2781 16.4044 32.1064 16.5761C32.0065 16.5427 31.9065 16.5094 31.8035 16.4751C32.0368 16.2418 32.27 16.0085 32.5104 15.7681Z" fill="#683BAB"/>
<path d="M29.0767 27.6852C28.8767 27.9851 28.8767 27.9851 28.6727 28.2911C28.606 28.2578 28.5394 28.2245 28.4707 28.1901C28.4707 28.0235 28.4707 27.8569 28.4707 27.6852C28.8494 27.5716 28.8494 27.5716 29.0767 27.6852Z" fill="#663EA0"/>
<path d="M31.1975 26.6752C31.1642 26.7752 31.1308 26.8752 31.0965 26.9782C30.8299 26.9782 30.5633 26.9782 30.2886 26.9782C30.743 26.6752 30.743 26.6752 31.1975 26.6752Z" fill="#DCB8BC"/>
<path d="M61.2931 14.1523C61.2931 14.4553 61.2931 14.4553 61.0406 14.7267C60.9573 14.8037 60.874 14.8808 60.7882 14.9602C60.7215 14.9269 60.6549 14.8936 60.5862 14.8592C60.8103 14.5655 60.983 14.359 61.2931 14.1523Z" fill="#6D3DAB"/>
</svg>
